# Blender v2.92.0 OBJ File: 'Bomb.blend'
# www.blender.org
o Icosphere
v 0.000000 0.000000 -1.000000
v 0.723607 -0.525725 -0.447220
v -0.276388 -0.850649 -0.447220
v -0.894426 0.000000 -0.447216
v -0.276388 0.850649 -0.447220
v 0.723607 0.525725 -0.447220
v 0.276388 -0.850649 0.447220
v -0.723607 -0.525725 0.447220
v -0.723607 0.525725 0.447220
v 0.276388 0.850649 0.447220
v 0.894426 0.000000 0.447216
v 0.179675 -0.023971 1.224807
v -0.162456 -0.499995 -0.850654
v 0.425323 -0.309011 -0.850654
v 0.262869 -0.809012 -0.525738
v 0.850648 0.000000 -0.525736
v 0.425323 0.309011 -0.850654
v -0.525730 0.000000 -0.850652
v -0.688189 -0.499997 -0.525736
v -0.162456 0.499995 -0.850654
v -0.688189 0.499997 -0.525736
v 0.262869 0.809012 -0.525738
v 0.951058 -0.309013 0.000000
v 0.951058 0.309013 0.000000
v 0.000000 -1.000000 0.000000
v 0.587786 -0.809017 0.000000
v -0.951058 -0.309013 0.000000
v -0.587786 -0.809017 0.000000
v -0.587786 0.809017 0.000000
v -0.951058 0.309013 0.000000
v 0.587786 0.809017 0.000000
v 0.000000 1.000000 0.000000
v 0.688189 -0.499997 0.525736
v -0.262869 -0.809012 0.525738
v -0.850648 0.000000 0.525736
v -0.262869 0.809012 0.525738
v 0.688189 0.499997 0.525736
v 0.162456 -0.499995 0.850654
v 0.525730 0.000000 0.850652
v -0.425323 -0.309011 0.850654
v -0.425323 0.309011 0.850654
v 0.162456 0.499995 0.850654
v 0.179674 -0.008787 0.954907
v 0.140944 0.124018 1.448029
v 0.055521 -0.179667 0.954908
v -0.145360 -0.114396 0.954908
v -0.145360 0.096822 0.954908
v 0.055521 0.162093 0.954908
v 0.110492 0.250302 1.621564
v 0.055521 -0.194851 1.224808
v -0.145360 -0.129580 1.224808
v -0.145360 0.081638 1.224808
v 0.055521 0.146909 1.224808
v 0.043553 0.014521 1.525350
v -0.114026 0.056346 1.495816
v -0.114026 0.191692 1.400244
v 0.043553 0.233517 1.370710
v 0.000000 0.268408 1.647205
v 0.034143 0.164463 1.682179
v -0.089390 0.197251 1.659026
v -0.089390 0.303354 1.584103
v 0.034143 0.336142 1.560951
v -0.981029 -0.366492 -0.816248
v -1.063739 -0.165970 -0.784758
v -0.667076 0.805165 -0.813836
v -0.489819 0.956100 -0.780039
v 1.093902 -0.692928 -0.168641
v 1.027815 -0.755894 -0.298582
v -1.209617 0.393497 0.357443
v -1.147825 0.452371 0.478940
v 0.282296 1.272184 0.146761
v 0.384986 1.216694 0.312923
v -1.182338 0.309547 0.500270
v 1.108354 0.489928 -0.507397
v 1.162147 0.267321 -0.540643
v -0.915875 -0.165970 -0.946554
v -0.440778 0.805164 -0.953694
v 1.204663 0.398166 -0.318032
v 0.988352 -0.838205 -0.168641
v 0.500684 1.201226 0.146761
v 1.055687 -0.154242 0.763646
v 0.958463 -0.389949 0.800662
v 0.881877 -0.154242 0.953832
v -0.169527 0.737916 1.053311
v -0.316854 0.690046 1.053311
v -0.276135 0.815371 0.971870
v -0.280534 -0.552659 0.766481
v -0.072023 -0.620410 0.766481
v -0.299289 -0.833408 0.527044
v -0.495207 -0.925744 0.184414
v -0.242607 -1.225487 0.191533
v 0.140044 -0.739640 -1.065665
v 0.256658 -0.824364 -0.976581
v 0.301198 -0.687277 -1.065665
vt 0.685539 0.669378
vt 0.678721 0.568169
vt 0.788861 0.628029
vt 0.685537 0.455035
vt 0.586016 0.493060
vt 0.097690 0.713692
vt 0.000001 0.663567
vt 0.089246 0.610241
vt 0.200085 0.672214
vt 0.179342 0.763839
vt 0.638860 0.380513
vt 0.872920 0.556877
vt 0.788861 0.502042
vt 0.874368 0.445925
vt 0.097688 0.497647
vt 0.000000 0.536578
vt 0.055683 0.426034
vt 0.286260 0.603081
vt 0.200084 0.545225
vt 0.290181 0.493350
vt 0.668329 0.860868
vt 0.607480 0.773076
vt 0.727060 0.763865
vt 0.443414 0.813358
vt 0.363955 0.886630
vt 0.363955 0.838488
vt 0.000000 0.350726
vt 0.001149 0.242227
vt 0.090292 0.329152
vt 0.179340 0.431378
vt 0.508688 0.355952
vt 0.478549 0.291936
vt 0.599636 0.323876
vt 0.780133 0.880839
vt 0.566116 0.692228
vt 0.470382 0.642939
vt 0.574133 0.578961
vt 0.194704 0.285282
vt 0.115594 0.203760
vt 0.238427 0.184677
vt 0.468931 0.188335
vt 0.422804 0.091769
vt 0.541815 0.101643
vt 0.674935 0.242674
vt 0.576267 0.225353
vt 0.662900 0.133583
vt 0.705359 0.189296
vt 0.792504 0.213883
vt 0.720217 0.301615
vt 0.149284 0.097753
vt 0.246857 0.131188
vt 0.792504 0.335774
vt 0.851330 0.777142
vt 0.789458 0.684447
vt 0.879750 0.690861
vt 0.705359 0.051679
vt 0.632190 0.064652
vt 0.646701 0.036660
vt 0.307107 0.884255
vt 0.229818 0.802237
vt 0.307107 0.763839
vt 0.509438 0.000000
vt 0.590808 0.053736
vt 0.289042 0.298275
vt 0.520339 0.495347
vt 0.559221 0.515652
vt 0.952953 0.566934
vt 0.874368 0.621991
vt 0.874368 0.593710
vt 0.705359 0.120671
vt 0.792898 0.075901
vt 0.792898 0.189296
vt 0.460362 0.519549
vt 0.879750 0.783012
vt 0.952601 0.865739
vt 0.879750 0.892713
vt 0.879750 0.883455
vt 0.154770 0.888203
vt 0.078596 0.804497
vt 0.154770 0.763839
vt 0.281796 0.395158
vt 0.197491 0.387567
vt 0.946373 0.206351
vt 0.872123 0.160083
vt 0.946373 0.112406
vt 0.709329 0.000000
vt 0.477726 0.763132
vt 0.363955 0.703719
vt 0.372557 0.591149
vt 0.874368 0.464729
vt 0.950518 0.384989
vt 0.950518 0.412254
vt 0.678677 0.669378
vt 0.586016 0.700117
vt 0.383702 0.209376
vt 0.083047 0.426034
vt 0.586016 0.773437
vt 0.764227 0.386064
vt 0.817622 0.975618
vt 0.693352 0.962341
vt 0.374578 0.145619
vt 0.586648 0.895740
vt 0.290181 0.698824
vt 0.039829 0.559749
vt 0.043215 0.514593
vt 0.950608 0.112406
vt 0.872123 0.037201
vt 0.950608 0.000000
vt 0.874368 0.649779
vt 0.586017 0.619048
vt 0.950903 0.669378
vt 0.879750 0.741310
vt 0.879750 0.699090
vt 0.650038 0.027823
vt 0.216392 0.101481
vt 0.275679 0.090631
vt 0.306013 0.426034
vt 0.332779 0.490280
vt 0.290181 0.479667
vt 0.324221 0.574029
vt 0.327794 0.636493
vt 0.301398 0.609645
vt 0.545329 0.456360
vt 0.584211 0.476665
vt 0.307306 0.532451
vt 0.350616 0.660063
vt 0.327226 0.672472
vt 0.586016 0.401498
vt 0.290181 0.636637
vt 0.296026 0.667785
vt 0.309458 0.020262
vt 0.328697 0.047869
vt 0.328276 0.710002
vt 0.303817 0.706328
vt 0.348873 0.000000
vt 0.363955 0.021642
vt 0.340695 0.524033
vt 0.322436 0.574029
vt 0.346612 0.700274
vt 0.551899 0.400752
vt 0.582424 0.356536
vt 0.402565 0.957741
vt 0.378703 0.967908
vt 0.387713 0.947282
vt 0.363955 0.947797
vt 0.378703 0.925201
vt 0.402565 0.931346
vt 0.382092 0.813358
vt 0.375963 0.786653
vt 0.409019 0.803915
vt 0.874147 0.337318
vt 0.901237 0.320985
vt 0.901237 0.353173
vt 0.180015 0.173440
vt 0.116324 0.208505
vt 0.148392 0.142604
vt 0.290181 0.730313
vt 0.338247 0.710002
vt 0.338247 0.763412
vt 0.363955 0.177570
vt 0.387109 0.171853
vt 0.958508 0.975578
vt 0.879750 0.975578
vt 0.943910 0.892713
vt 0.402565 0.947745
vt 0.434928 0.925201
vt 0.434928 0.966740
vt 0.351046 0.920723
vt 0.351046 0.964977
vt 0.307107 0.945432
vt 0.321317 0.875341
vt 0.351785 0.920723
vt 0.307107 0.920723
vt 0.004038 0.530207
vt 0.523761 0.946519
vt 0.553376 0.929078
vt 0.553376 0.964300
vt 0.078596 0.889623
vt 0.000000 0.809315
vt 0.078596 0.763839
vt 0.523761 0.813358
vt 0.443414 0.883071
vt 0.443414 0.852897
vt 0.585684 0.929078
vt 0.523761 0.835511
vt 0.585684 0.813358
vt 0.948979 0.320985
vt 0.874147 0.263914
vt 0.948979 0.207308
vt 0.363955 0.353615
vt 0.361987 0.379936
vt 0.075884 0.977851
vt 0.000000 0.897380
vt 0.075884 0.889622
vt 0.363502 0.763839
vt 0.307107 0.846690
vt 0.307107 0.799476
vt 0.151628 0.888203
vt 0.078596 0.965532
vt 0.078596 0.921980
vt 0.706520 0.355951
vt 0.970580 0.207308
vt 0.948979 0.281650
vt 0.962556 0.211606
vt 0.518341 1.000000
vt 0.494546 0.923413
vt 0.514901 0.923413
vt 0.874147 0.335774
vt 0.792504 0.246078
vt 0.874147 0.207308
vt 0.805709 0.110269
vt 0.832197 0.169577
vt 0.797495 0.107579
vt 0.306086 0.983895
vt 0.250830 0.928707
vt 0.271426 0.884255
vt 0.792898 0.000000
vt 0.872123 0.000289
vt 0.677382 0.350227
vt 0.955285 0.566934
vt 0.874368 0.501206
vt 0.955285 0.464729
vt 0.221886 0.996534
vt 0.154770 0.935382
vt 0.221886 0.888145
vt 0.229818 0.888145
vt 0.154770 0.800207
vt 0.229818 0.763839
vt 0.443414 0.925201
vt 0.229818 0.853224
vt 0.579743 0.018998
vt 0.952953 0.664270
vt 0.952601 0.814024
vt 0.078596 0.838595
vt 0.872123 0.194987
vt 0.874368 0.355952
vt 0.872123 0.085585
vt 0.950903 0.783012
vt 0.608656 0.016907
vt 0.245213 0.060923
vt 0.348610 0.436647
vt 0.350616 0.600877
vt 0.348610 0.567430
vt 0.555679 0.355952
vt 0.000000 0.840843
vt 0.523761 0.923412
vt 0.523761 0.864516
vt 0.874147 0.295081
vt 0.000000 0.935357
vt 0.363502 0.875341
vt 0.151628 0.980588
vt 0.683657 0.375991
vt 0.970580 0.325554
vt 0.443414 1.000000
vt 0.792504 0.297598
vt 0.872123 0.195128
vt 0.229818 0.983895
vt 0.705359 0.320057
vt 0.874368 0.542195
vt 0.154770 0.981276
vt 0.154770 0.858807
vn 0.1024 -0.3151 -0.9435
vn 0.7002 -0.2680 -0.6617
vn -0.2680 -0.1947 -0.9435
vn -0.2680 0.1947 -0.9435
vn 0.1024 0.3151 -0.9435
vn 0.9050 -0.2680 -0.3304
vn 0.0247 -0.9435 -0.3304
vn -0.8897 -0.3151 -0.3304
vn -0.5746 0.7488 -0.3304
vn 0.5346 0.7779 -0.3304
vn 0.7533 0.5867 -0.2972
vn -0.3066 -0.9435 -0.1256
vn -0.9921 0.0000 -0.1256
vn -0.3066 0.9435 -0.1256
vn 0.8026 0.5831 -0.1256
vn 0.4089 -0.6284 0.6617
vn -0.4713 -0.5831 0.6617
vn -0.7002 0.2680 0.6617
vn 0.0385 0.7488 0.6617
vn 0.7240 0.1947 0.6617
vn -0.1107 -0.3408 0.9336
vn 0.4911 0.3568 0.7947
vn 0.4089 0.6284 0.6617
vn 0.2778 0.2018 0.9392
vn 0.6293 -0.7165 0.3010
vn -0.4713 0.5831 0.6617
vn -0.3490 0.0000 0.9371
vn -0.6071 0.0000 0.7947
vn -0.7002 -0.2680 0.6617
vn 0.2870 -0.2085 0.9350
vn 0.6540 0.4947 -0.5723
vn 0.0385 -0.7488 0.6617
vn -0.1051 0.3234 0.9404
vn 0.4911 -0.3568 0.7947
vn 0.7300 -0.3893 -0.5618
vn 0.8897 0.3151 0.3304
vn 0.7947 0.5773 0.1876
vn 0.5746 0.7488 0.3304
vn -0.0247 0.9435 0.3304
vn -0.3035 0.9342 0.1876
vn -0.5346 0.7779 0.3304
vn -0.6050 -0.7954 0.0354
vn -0.9822 0.0000 0.1876
vn -0.9050 -0.2680 0.3304
vn -0.5346 -0.7779 0.3304
vn 0.1206 0.3713 -0.9206
vn -0.0247 -0.9435 0.3304
vn 0.5746 -0.7488 0.3304
vn 0.7947 -0.5773 0.1876
vn 0.8897 -0.3151 0.3304
vn 0.1621 -0.4989 0.8513
vn 0.3035 0.9342 -0.1876
vn 0.0247 0.9435 -0.3304
vn -0.8026 0.5831 0.1256
vn -0.7947 0.5773 -0.1876
vn -0.8897 0.3151 -0.3304
vn -0.8026 -0.5831 0.1256
vn -0.7947 -0.5773 -0.1876
vn -0.5746 -0.7488 -0.3304
vn 0.3066 -0.9435 0.1256
vn 0.3035 -0.9342 -0.1876
vn 0.5346 -0.7779 -0.3304
vn 0.9921 0.0000 0.1256
vn 0.9822 0.0000 -0.1876
vn 0.0505 0.1356 0.9895
vn 0.4713 0.5831 -0.6617
vn 0.1876 0.5773 -0.7947
vn -0.0385 0.7488 -0.6617
vn -0.3143 0.9048 -0.2872
vn -0.4911 0.3568 -0.7947
vn -0.7240 0.1947 -0.6617
vn -0.5953 0.5730 0.5633
vn -0.4911 -0.3568 -0.7947
vn -0.4089 -0.6284 -0.6617
vn 0.7002 0.2680 -0.6617
vn 0.6071 0.0000 -0.7947
vn 0.3313 0.0000 -0.9435
vn -0.0385 -0.7488 -0.6617
vn 0.8188 -0.0326 0.5732
vn 0.4713 -0.5831 -0.6617
vn -0.3086 0.9497 0.0534
vn -0.3086 -0.9497 -0.0534
vn 0.8086 0.5875 0.0330
vn -1.0000 0.0000 0.0000
vn 0.8086 -0.5875 -0.0331
vn 0.7850 0.5703 -0.2419
vn -0.9887 0.0864 0.1224
vn 0.7400 -0.5377 0.4040
vn -0.3086 0.8066 -0.5041
vn -0.3090 -0.7672 0.5621
vn -0.3074 0.8310 -0.4635
vn -0.3065 -0.6971 0.6481
vn 0.8045 0.5385 -0.2507
vn -0.9935 0.0658 0.0932
vn 0.8029 -0.4060 0.4364
vn 0.2680 0.7033 0.6584
vn -0.1024 0.8016 0.5890
vn -0.3313 0.5442 0.7707
vn -0.1024 0.2869 0.9525
vn 0.2680 0.3852 0.8831
vn 0.8026 -0.5831 -0.1256
vn -0.1876 0.5773 0.7947
vn -0.2038 -0.6274 0.7516
vn 0.7240 -0.1947 0.6617
vn -0.9050 0.2680 0.3304
vn -0.6581 -0.5422 0.5224
vn 0.3066 0.9435 0.1256
vn 0.9050 0.2680 -0.3304
vn -0.4089 0.6284 -0.6617
vn -0.7240 -0.1947 -0.6617
vn 0.1876 -0.5773 -0.7947
vn 0.5849 0.8111 0.0058
vn -0.1718 0.5288 -0.8312
vn -0.9566 0.2896 -0.0326
vn 0.9506 -0.3105 -0.0025
vn -0.6397 -0.7097 -0.2950
vn -0.4172 -0.6084 -0.6751
vn 0.1435 0.9173 0.3715
vn -0.1269 -0.3904 0.9119
vn 0.3106 0.9072 0.2839
vn -0.2972 -0.7632 -0.5737
vn -0.5138 -0.5366 0.6694
vn -0.5519 0.8288 0.0922
vn -0.1850 0.9180 -0.3508
vn 0.4198 -0.5865 -0.6927
vn 0.5503 -0.8109 0.1990
vn -0.2821 -0.8683 -0.4080
vn 0.7645 -0.3804 0.5204
vn -0.7030 0.4193 0.5745
vn -0.7320 -0.3897 0.5588
vn -0.1434 0.1122 -0.9833
vn -0.4490 -0.5849 0.6755
vn 0.3585 -0.2604 0.8965
vn 0.8047 0.5372 -0.2529
vn -0.9934 0.0000 0.1149
vn 0.8050 -0.4205 0.4185
vn -0.2717 0.8363 -0.4761
vn -0.2591 -0.7973 0.5451
vn -0.3075 0.8310 -0.4635
vn -0.3242 0.4391 -0.8379
vn -0.8405 0.1540 0.5194
vn 0.2762 -0.8506 0.4474
vn -0.3725 -0.3345 -0.8656
vn 0.4018 -0.5611 0.7236
s off
f 1/1/1 14/2/1 13/3/1
f 2/4/2 14/2/2 16/5/2
f 1/6/3 13/7/3 18/8/3
f 1/6/4 18/8/4 20/9/4
f 1/6/5 20/9/5 17/10/5
f 2/4/6 16/5/6 23/11/6
f 3/12/7 15/13/7 25/14/7
f 4/15/8 19/16/8 27/17/8
f 5/18/9 21/19/9 29/20/9
f 6/21/10 22/22/10 31/23/10
f 5/24/11 77/25/11 66/26/11
f 3/27/12 25/28/12 28/29/12
f 4/15/13 27/17/13 30/30/13
f 5/31/14 29/32/14 32/33/14
f 6/21/15 31/23/15 24/34/15
f 7/35/16 33/36/16 38/37/16
f 8/38/17 34/39/17 40/40/17
f 9/41/18 35/42/18 41/43/18
f 10/44/19 36/45/19 42/46/19
f 11/47/20 37/48/20 39/49/20
f 38/50/21 46/51/21 40/40/21
f 39/49/22 37/48/22 42/52/22
f 37/53/23 10/54/23 42/55/23
f 39/56/24 48/57/24 43/58/24
f 16/59/25 78/60/25 24/61/25
f 36/45/26 9/41/26 41/43/26
f 40/62/27 47/63/27 41/43/27
f 41/43/28 35/42/28 40/62/28
f 35/64/29 8/38/29 40/40/29
f 38/37/30 43/65/30 45/66/30
f 2/67/31 67/68/31 68/69/31
f 34/70/32 7/71/32 38/72/32
f 41/43/33 48/57/33 42/46/33
f 38/37/34 33/36/34 39/73/34
f 11/74/35 82/75/35 33/76/35
f 24/34/36 37/53/36 11/77/36
f 24/34/37 31/23/37 37/53/37
f 31/23/38 10/54/38 37/53/38
f 32/33/39 36/45/39 10/44/39
f 32/33/40 29/32/40 36/45/40
f 29/32/41 9/41/41 36/45/41
f 13/78/42 93/79/42 15/80/42
f 30/81/43 27/82/43 35/64/43
f 27/82/44 8/38/44 35/64/44
f 28/29/45 34/39/45 8/38/45
f 32/83/46 80/84/46 31/85/46
f 25/86/47 7/71/47 34/70/47
f 26/87/48 33/36/48 7/35/48
f 26/87/49 23/88/49 33/36/49
f 23/88/50 11/89/50 33/36/50
f 41/90/51 84/91/51 85/92/51
f 31/23/52 22/22/52 32/93/52
f 22/22/53 5/94/53 32/93/53
f 29/32/54 30/95/54 9/41/54
f 29/20/55 21/19/55 30/30/55
f 21/19/56 4/15/56 30/30/56
f 27/82/57 28/29/57 8/38/57
f 27/82/58 19/96/58 28/29/58
f 19/96/59 3/27/59 28/29/59
f 25/97/60 26/87/60 7/35/60
f 25/14/61 15/13/61 26/98/61
f 15/13/62 2/4/62 26/98/62
f 23/99/63 24/34/63 11/77/63
f 23/99/64 16/100/64 24/34/64
f 9/41/65 73/101/65 35/42/65
f 17/102/66 22/22/66 6/21/66
f 17/10/67 20/9/67 22/103/67
f 20/9/68 5/18/68 22/103/68
f 4/15/69 76/104/69 64/105/69
f 20/9/70 18/8/70 21/19/70
f 18/8/71 4/15/71 21/19/71
f 5/106/72 65/107/72 21/108/72
f 18/8/73 13/7/73 19/16/73
f 13/3/74 3/12/74 19/109/74
f 16/100/75 17/102/75 6/21/75
f 16/5/76 14/2/76 17/110/76
f 14/2/77 1/1/77 17/110/77
f 13/3/78 15/13/78 3/12/78
f 10/111/79 80/112/79 72/113/79
f 14/2/80 2/4/80 15/13/80
f 47/63/81 53/114/81 48/57/81
f 45/115/82 51/116/82 46/51/82
f 43/117/83 53/118/83 12/119/83
f 46/120/84 52/121/84 47/122/84
f 45/66/85 12/123/85 50/124/85
f 53/118/86 44/125/86 12/119/86
f 52/121/87 55/126/87 56/127/87
f 12/123/88 54/128/88 50/124/88
f 53/129/89 56/127/89 57/130/89
f 51/116/90 54/131/90 55/132/90
f 57/130/91 61/133/91 62/134/91
f 55/132/92 59/135/92 60/136/92
f 57/137/93 49/138/93 44/125/93
f 56/127/94 60/139/94 61/133/94
f 44/140/95 59/141/95 54/128/95
f 49/142/96 62/143/96 58/144/96
f 62/143/97 61/145/97 58/144/97
f 61/145/98 60/146/98 58/144/98
f 60/146/99 59/147/99 58/144/99
f 59/147/100 49/142/100 58/144/100
f 68/148/101 67/149/101 79/150/101
f 84/151/102 86/152/102 85/153/102
f 87/154/103 89/155/103 88/156/103
f 82/157/104 81/158/104 83/159/104
f 69/160/105 73/101/105 70/161/105
f 90/162/106 91/163/106 89/164/106
f 80/165/107 71/166/107 72/167/107
f 75/168/108 74/169/108 78/170/108
f 77/171/109 65/172/109 66/173/109
f 76/104/110 63/174/110 64/105/110
f 92/175/111 94/176/111 93/177/111
f 36/178/112 84/179/112 42/180/112
f 13/181/113 94/182/113 92/183/113
f 41/184/114 86/185/114 36/186/114
f 15/187/115 94/188/115 14/189/115
f 30/81/116 73/190/116 69/191/116
f 21/192/117 77/193/117 20/194/117
f 6/195/118 78/196/118 74/197/118
f 38/50/119 87/154/119 88/156/119
f 11/198/120 83/199/120 81/200/120
f 2/4/121 79/201/121 26/98/121
f 40/40/122 89/155/122 87/154/122
f 34/202/123 90/203/123 89/204/123
f 9/205/124 69/206/124 70/207/124
f 19/208/125 76/209/125 18/210/125
f 34/211/126 88/212/126 89/213/126
f 25/214/127 90/215/127 28/216/127
f 34/211/128 91/217/128 25/218/128
f 10/44/129 71/219/129 32/33/129
f 4/220/130 63/221/130 19/222/130
f 6/223/131 75/224/131 16/225/131
f 33/226/132 83/227/132 39/228/132
f 26/87/133 67/149/133 23/88/133
f 5/24/11 20/229/11 77/25/11
f 38/50/21 45/115/21 46/51/21
f 39/56/24 42/46/24 48/57/24
f 16/59/25 75/230/25 78/60/25
f 40/62/27 46/231/27 47/63/27
f 38/37/30 39/73/30 43/65/30
f 2/67/31 23/232/31 67/68/31
f 41/43/33 47/63/33 48/57/33
f 11/74/35 81/233/35 82/75/35
f 13/78/42 92/234/42 93/79/42
f 32/83/46 71/235/46 80/84/46
f 41/90/51 42/236/51 84/91/51
f 9/41/65 70/161/65 73/101/65
f 4/15/69 18/8/69 76/104/69
f 5/106/72 66/237/72 65/107/72
f 10/111/79 31/238/79 80/112/79
f 47/63/81 52/239/81 53/114/81
f 45/115/82 50/240/82 51/116/82
f 43/117/83 48/241/83 53/118/83
f 46/120/84 51/242/84 52/121/84
f 45/66/85 43/65/85 12/123/85
f 53/118/134 57/137/134 44/125/134
f 52/121/135 51/242/135 55/126/135
f 12/123/136 44/140/136 54/128/136
f 53/129/137 52/121/137 56/127/137
f 51/116/138 50/240/138 54/131/138
f 57/130/139 56/127/139 61/133/139
f 55/132/92 54/131/92 59/135/92
f 57/137/93 62/243/93 49/138/93
f 56/127/94 55/126/94 60/139/94
f 44/140/95 49/244/95 59/141/95
f 36/178/112 86/245/112 84/179/112
f 13/181/113 14/246/113 94/182/113
f 41/184/114 85/247/114 86/185/114
f 15/187/115 93/248/115 94/188/115
f 30/81/116 35/64/116 73/190/116
f 21/192/117 65/249/117 77/193/117
f 6/195/118 24/250/118 78/196/118
f 38/50/119 40/40/119 87/154/119
f 11/198/120 39/251/120 83/199/120
f 2/4/121 68/252/121 79/201/121
f 40/40/140 34/39/140 89/155/140
f 34/202/141 28/253/141 90/203/141
f 9/205/124 30/254/124 69/206/124
f 19/208/125 63/255/125 76/209/125
f 34/211/142 38/256/142 88/212/142
f 25/214/143 91/257/143 90/215/143
f 34/211/144 89/213/144 91/217/144
f 10/44/129 72/258/129 71/219/129
f 4/220/130 64/259/130 63/221/130
f 6/223/131 74/260/131 75/224/131
f 33/226/132 82/261/132 83/227/132
f 26/87/133 79/150/133 67/149/133
