# Blender v2.92.0 OBJ File: 'bird.blend'
# www.blender.org
o bird_Cube
v -0.584528 -1.079199 1.557549
v -0.603755 -1.858619 0.758287
v -0.539165 1.716005 0.058897
v -0.560806 1.450012 -0.904652
v -0.326783 1.661519 -1.050692
v -0.631561 1.735008 -0.776513
v -0.664157 1.929902 -0.528477
v -0.622881 1.892822 -0.209397
v -0.692315 -1.428017 1.577709
v -0.736584 -1.754834 1.435787
v -0.692315 -1.890447 1.106302
v -0.575530 -0.607845 1.131802
v -0.715111 0.217234 0.933884
v -0.763029 1.121219 0.547885
v -0.358463 -1.212677 1.797230
v -0.878589 0.718956 -0.919789
v -0.986348 -0.217234 -0.631583
v -0.613840 -1.410268 0.307077
v -0.321607 1.966311 0.052928
v -0.358463 -2.105786 0.886781
v -0.313193 -0.544298 1.273751
v -0.352913 0.278623 1.048651
v -0.424185 1.257514 0.664529
v -0.775146 -1.276190 0.541590
v -0.817842 -1.094612 0.813432
v -0.742937 -0.833395 1.004434
v -1.189354 -0.118722 -0.195793
v -1.180948 0.000000 0.276357
v -1.008579 0.118723 0.663469
v -1.096311 0.890609 -0.567616
v -1.143247 1.072562 -0.093699
v -0.992076 1.112587 0.316623
v -0.343243 2.223899 -0.941621
v -0.361681 2.475283 -0.683015
v -0.343243 2.392090 -0.332086
v -0.484583 0.745681 -1.184282
v -0.581049 -0.278623 -0.938182
v -0.340032 -1.565288 0.231985
v -0.343243 -2.244115 1.472874
v -0.361681 -2.146604 1.820096
v -0.343243 -1.801321 1.924265
v -0.063250 -3.216393 0.914844
v -0.060565 -3.240801 1.018259
v -1.362578 2.460630 -0.239104
v -1.280686 2.384284 -0.098318
v -0.744675 3.583529 -0.305736
v -0.706711 3.412241 -0.150356
v -3.576453 1.639518 2.082855
v -3.553497 1.700175 2.121954
v -3.702777 1.893698 1.924709
v -3.660783 1.921267 2.017435
v -3.695834 2.142758 1.852437
v -3.656141 2.152052 1.943692
v -2.621572 0.678684 1.072565
v -2.596870 1.564766 0.815440
v -2.472167 0.776765 1.402455
v -2.106148 -0.009814 1.751244
v -2.455653 1.597831 1.140100
v -2.183832 -0.225614 1.615658
v 0.583908 -1.079199 1.557643
v 0.603700 -1.858619 0.758318
v 0.539047 1.716005 0.059177
v 0.561179 1.450012 -0.904273
v 0.000000 1.767761 -1.120134
v 0.326867 1.661519 -1.050637
v 0.631741 1.735008 -0.776266
v 0.664177 1.929902 -0.528418
v 0.622879 1.892822 -0.209314
v 0.692315 -1.428017 1.577709
v 0.736584 -1.754834 1.435787
v 0.692315 -1.890447 1.106302
v 0.574072 -0.607845 1.132225
v 0.709997 0.217234 0.937377
v 0.761443 1.121219 0.549439
v 0.000000 -1.279725 1.920120
v 0.358463 -1.212677 1.797230
v 0.879756 0.718956 -0.918141
v 0.989034 -0.217234 -0.626728
v 0.613579 -1.410268 0.307381
v 0.321598 1.966311 0.052939
v 0.000000 2.092043 0.055083
v 0.358463 -2.105786 0.886781
v -0.000000 -2.229942 0.951454
v -0.000289 -0.547115 1.344333
v -0.001315 0.299178 1.072068
v -0.000307 1.347028 0.695579
v 0.312323 -0.544298 1.273783
v 0.348570 0.278623 1.049769
v 0.423317 1.257514 0.664888
v 0.774620 -1.276190 0.542069
v 0.816827 -1.094612 0.814108
v 0.741259 -0.833395 1.005262
v 1.190028 -0.118722 -0.189491
v 1.179031 0.000000 0.283801
v 1.004171 0.118722 0.669826
v 1.097169 0.890609 -0.564923
v 1.143148 1.072562 -0.089269
v 0.990391 1.112587 0.320557
v 0.343243 2.223899 -0.941621
v 0.361681 2.475283 -0.683015
v 0.343243 2.392090 -0.332086
v 0.000000 2.386670 -1.004153
v 0.000000 2.657891 -0.733402
v 0.000000 2.563896 -0.361875
v 0.000539 0.798097 -1.285226
v 0.001713 -0.299178 -1.067660
v 0.000000 -1.642108 0.230013
v 0.485792 0.745681 -1.183588
v 0.584789 -0.278623 -0.935537
v 0.339925 -1.565288 0.232075
v -0.000000 -2.379893 1.582276
v 0.000000 -2.281834 1.952751
v 0.000000 -1.913313 2.057915
v 0.343243 -2.244115 1.472874
v 0.361681 -2.146604 1.820096
v 0.343243 -1.801321 1.924265
v 0.063250 -3.216393 0.914844
v -0.000000 -3.238300 0.926256
v -0.000000 -3.264759 1.037562
v 0.060565 -3.240801 1.018259
v 1.362578 2.460630 -0.239104
v 1.280686 2.384284 -0.098318
v 0.744675 3.583529 -0.305736
v 0.706711 3.412241 -0.150356
v 0.000000 3.959505 -0.328046
v 0.000000 3.765977 -0.163546
v 3.564206 1.639518 2.103410
v 3.541025 1.700175 2.142376
v 3.691438 1.893698 1.945994
v 3.648910 1.921266 2.038476
v 3.684911 2.142757 1.873682
v 3.644694 2.152051 1.964708
v 2.615158 0.678684 1.087640
v 2.591936 1.564766 0.830376
v 2.463856 0.776764 1.416663
v 2.095215 -0.009814 1.764103
v 2.448853 1.597831 1.154218
v 2.173806 -0.225614 1.628894
vt 0.176301 0.339534
vt 0.139684 0.375529
vt 0.135145 0.339270
vt 0.235858 0.388808
vt 0.181488 0.391170
vt 0.235016 0.339856
vt 0.324835 0.386169
vt 0.314429 0.417481
vt 0.245828 0.431074
vt 0.200492 0.435637
vt 0.147552 0.411667
vt 0.102330 0.392327
vt 0.084639 0.368179
vt 0.075548 0.338812
vt 0.171378 0.496455
vt 0.253633 0.501185
vt 0.276053 0.534287
vt 0.836736 0.260767
vt 0.847607 0.387338
vt 0.765954 0.258793
vt 0.297142 0.502486
vt 0.314615 0.539132
vt 0.915776 0.229304
vt 0.898379 0.401866
vt 0.887973 0.394379
vt 0.127647 0.492763
vt 0.176722 0.529543
vt 0.106552 0.452706
vt 0.159789 0.465153
vt 0.093402 0.400931
vt 0.092682 0.418433
vt 0.152150 0.439828
vt 0.227396 0.469562
vt 0.271035 0.466638
vt 0.353398 0.445392
vt 0.378864 0.502178
vt 0.376583 0.548412
vt 0.372133 0.574719
vt 0.328537 0.575372
vt 0.292703 0.571159
vt 0.434880 0.539342
vt 0.453764 0.621666
vt 0.416185 0.581785
vt 0.383308 0.726360
vt 0.356339 0.867328
vt 0.275008 0.810367
vt 0.394221 0.604899
vt 0.456126 0.883559
vt 0.371335 0.885290
vt 0.373823 0.883486
vt 0.392930 0.398728
vt 0.329325 0.340231
vt 0.403811 0.340408
vt 0.434452 0.791175
vt 0.422631 0.645749
vt 0.304256 0.682184
vt 0.348613 0.617783
vt 0.371973 0.676590
vt 0.162002 0.560361
vt 0.302886 0.617545
vt 0.137379 0.595567
vt 0.089788 0.502031
vt 0.000171 0.390862
vt 0.054574 0.380433
vt 0.043652 0.425482
vt 0.054666 0.338617
vt 0.031806 0.338404
vt 0.064012 0.368014
vt 0.535070 0.347640
vt 0.528359 0.370358
vt 0.522574 0.351730
vt 0.487913 0.485294
vt 0.489506 0.299196
vt 0.435611 0.361255
vt 0.564115 0.491280
vt 0.539938 0.371712
vt 0.262813 0.838122
vt 0.349855 0.877506
vt 0.310262 0.954211
vt 0.395078 0.955431
vt 0.240969 0.930360
vt 0.845761 0.393303
vt 0.866676 0.400767
vt 0.872363 0.416603
vt 0.879392 0.404684
vt 0.876684 0.394442
vt 0.876186 0.240807
vt 0.695545 0.341871
vt 0.835006 0.416137
vt 0.746495 0.271268
vt 0.684537 0.075123
vt 0.658535 0.087923
vt 0.566248 0.180255
vt 0.837831 0.047129
vt 0.786164 0.074284
vt 0.895570 0.032162
vt 0.956143 0.248109
vt 0.140173 0.303111
vt 0.236315 0.290959
vt 0.325120 0.294300
vt 0.314923 0.262976
vt 0.182089 0.288020
vt 0.246650 0.248902
vt 0.148496 0.267166
vt 0.103135 0.285817
vt 0.085105 0.309629
vt 0.173252 0.183070
vt 0.255046 0.179207
vt 0.161359 0.214061
vt 0.842686 0.616006
vt 0.831815 0.742576
vt 0.761033 0.744550
vt 0.277600 0.146522
vt 0.298295 0.178272
vt 0.910854 0.774039
vt 0.893458 0.601477
vt 0.951221 0.755234
vt 0.129743 0.186198
vt 0.108219 0.225745
vt 0.093917 0.259659
vt 0.094368 0.277107
vt 0.153439 0.239170
vt 0.228660 0.210404
vt 0.201529 0.243899
vt 0.272060 0.213710
vt 0.353881 0.235361
vt 0.377455 0.133236
vt 0.315916 0.142017
vt 0.373205 0.107139
vt 0.329996 0.106178
vt 0.294427 0.110074
vt 0.178925 0.150259
vt 0.454333 0.061182
vt 0.435153 0.142563
vt 0.416888 0.100424
vt 0.205264 0.684165
vt 0.166109 0.822286
vt 0.130470 0.719147
vt 0.395285 0.077397
vt 0.379462 0.179085
vt 0.069620 0.791985
vt 0.144692 0.831595
vt 0.091966 0.883675
vt 0.393160 0.282079
vt 0.143280 0.828870
vt 0.423678 0.037163
vt 0.350212 0.064310
vt 0.306856 0.000171
vt 0.373784 0.006308
vt 0.164657 0.119515
vt 0.140635 0.084331
vt 0.092279 0.176481
vt 0.057114 0.145190
vt 0.304913 0.064179
vt 0.001266 0.285522
vt 0.055309 0.296903
vt 0.064515 0.309449
vt 0.045218 0.251834
vt 0.550082 0.365966
vt 0.632006 0.456158
vt 0.548175 0.346553
vt 0.632006 0.321544
vt 0.558233 0.285299
vt 0.167336 0.834267
vt 0.168339 0.920601
vt 0.840840 0.610040
vt 0.861755 0.602576
vt 0.874470 0.598659
vt 0.871763 0.608902
vt 0.871265 0.762537
vt 0.883051 0.608964
vt 0.690623 0.661472
vt 0.741573 0.732075
vt 0.679616 0.928220
vt 0.653614 0.915420
vt 0.561327 0.823088
vt 0.832910 0.956214
vt 0.781243 0.929059
vt 0.890648 0.971182
vt 0.951221 0.954587
vt 0.484699 0.578693
vt 0.053931 0.533138
vt 0.956143 0.048756
vt 0.484699 0.103900
vt 0.264367 0.807842
vt 0.867441 0.586740
vt 0.830084 0.587206
vn -0.0011 0.3139 0.9494
vn -0.3441 0.4352 0.8320
vn 0.0001 0.4835 0.8753
vn -0.3247 0.5047 0.7999
vn -0.2216 0.2892 0.9312
vn -0.0002 0.5255 0.8508
vn -0.4386 0.6024 0.6669
vn -0.5724 0.5974 0.5615
vn -0.5544 0.4503 0.6999
vn -0.5273 0.2129 0.8226
vn -0.6367 0.2933 0.7131
vn -0.6741 0.4186 0.6086
vn -0.3963 0.3887 0.8318
vn 0.0000 0.3859 0.9225
vn -0.9228 -0.3463 -0.1688
vn -0.8835 -0.3152 -0.3464
vn -0.9626 -0.2096 -0.1712
vn 0.6446 0.4142 0.6426
vn 0.0100 0.2315 0.9728
vn 0.2636 -0.0379 0.9639
vn -0.8501 0.4382 -0.2921
vn -0.9051 0.1819 -0.3844
vn -0.3509 0.5631 -0.7482
vn -0.9773 -0.1830 -0.1069
vn -0.6763 0.6650 -0.3169
vn -0.6840 -0.6020 -0.4119
vn -0.6826 -0.5512 -0.4798
vn -0.8485 -0.5213 -0.0912
vn -0.9469 -0.3061 0.0979
vn -0.8473 0.0933 0.5228
vn -0.9228 -0.2755 0.2694
vn -0.5572 0.0266 0.8299
vn -0.0224 0.3624 0.9317
vn -0.2949 0.7646 0.5730
vn -0.7265 0.3002 0.6181
vn -0.8994 0.0930 -0.4270
vn -0.7805 0.2639 -0.5666
vn -0.6444 0.2106 -0.7350
vn -0.7049 0.0647 -0.7064
vn -0.7587 -0.3481 -0.5506
vn -0.4828 0.3330 -0.8099
vn 0.0000 0.5095 -0.8604
vn -0.5734 0.3649 -0.7335
vn 0.0000 0.4476 -0.8942
vn -0.6474 0.7397 -0.1834
vn 0.0000 0.9847 -0.1742
vn -0.4468 0.1742 -0.8775
vn -0.5697 -0.3470 0.7450
vn -0.9796 -0.0278 -0.1991
vn -0.0352 0.2527 0.9669
vn 0.0000 0.6584 0.7527
vn 0.0000 0.1666 0.9860
vn 0.0000 0.1769 -0.9842
vn 0.0016 -0.4574 -0.8892
vn -0.3931 0.0181 -0.9193
vn 0.0005 0.0043 -1.0000
vn -0.3279 -0.6888 -0.6466
vn -0.4046 -0.4339 -0.8050
vn 0.0000 -0.7372 -0.6756
vn -0.5157 -0.6744 -0.5283
vn 0.0000 -0.8072 0.5903
vn -0.6357 -0.5510 0.5405
vn -0.7285 -0.6514 0.2120
vn 0.0000 -0.0703 0.9975
vn 0.0000 -0.7139 0.7002
vn -0.5443 -0.0223 0.8386
vn 0.0000 -0.7163 -0.6977
vn -0.6788 -0.6983 0.2270
vn -0.5056 -0.4776 -0.7185
vn 0.0000 -0.3226 -0.9465
vn 0.0000 -0.9084 0.4180
vn 0.0000 0.3742 0.9273
vn -0.2817 0.2645 0.9223
vn -0.7591 -0.5001 0.4167
vn -0.3153 0.2364 0.9191
vn -0.1506 0.7808 0.6063
vn 0.5330 0.7618 0.3681
vn -0.7135 -0.4185 -0.5619
vn -0.4991 -0.8128 0.3002
vn 0.3442 0.4355 0.8318
vn 0.3237 0.5048 0.8002
vn 0.4384 0.6024 0.6670
vn 0.5716 0.5979 0.5620
vn 0.2180 0.2895 0.9320
vn 0.5518 0.4506 0.7017
vn 0.6359 0.2933 0.7138
vn 0.6742 0.4193 0.6080
vn 0.3964 0.3888 0.8316
vn 0.9232 -0.3454 -0.1682
vn 0.8855 -0.3144 -0.3421
vn 0.9476 -0.3042 0.0978
vn -0.0155 0.2316 0.9727
vn -0.6484 0.4147 0.6384
vn -0.2698 -0.0381 0.9622
vn 0.9637 -0.2087 -0.1666
vn 0.8516 0.4377 -0.2885
vn 0.3554 0.5632 -0.7459
vn 0.9779 -0.1830 -0.1013
vn 0.7168 -0.4188 -0.5575
vn 0.6843 -0.6016 -0.4120
vn 0.8488 -0.5208 -0.0913
vn 0.9229 -0.2752 0.2691
vn 0.8476 0.0939 0.5223
vn 0.5543 0.0255 0.8319
vn 0.0175 0.3620 0.9320
vn 0.5221 0.2138 0.8256
vn 0.2913 0.7659 0.5732
vn 0.7263 0.3007 0.6181
vn 0.7810 0.2636 -0.5661
vn 0.9059 0.1823 -0.3822
vn 0.6452 0.2105 -0.7344
vn 0.7062 0.0648 -0.7050
vn 0.7616 -0.3474 -0.5471
vn 0.6833 -0.5507 -0.4794
vn 0.4828 0.3330 -0.8099
vn 0.5734 0.3649 -0.7335
vn 0.6474 0.7397 -0.1834
vn 0.4470 0.1743 -0.8774
vn 0.8994 0.0927 -0.4270
vn 0.5697 -0.3470 0.7450
vn 0.0352 0.2527 0.9669
vn 0.9796 -0.0278 -0.1991
vn 0.3945 0.0181 -0.9187
vn 0.3282 -0.6887 -0.6465
vn 0.5157 -0.6744 -0.5284
vn 0.4081 -0.4336 -0.8033
vn 0.6357 -0.5510 0.5405
vn 0.5443 -0.0223 0.8386
vn 0.7285 -0.6514 0.2120
vn 0.6788 -0.6983 0.2270
vn 0.5056 -0.4776 -0.7185
vn 0.2817 0.2645 0.9223
vn 0.7567 -0.5000 0.4210
vn 0.3100 0.2364 0.9209
vn 0.1471 0.7808 0.6071
vn -0.5354 0.7616 0.3650
vn 0.6781 0.6650 -0.3130
vn 0.4965 -0.8131 0.3037
s 1
f 85/1/1 21/2/2 84/3/3
f 85/1/1 23/4/4 22/5/5
f 86/6/6 19/7/7 23/4/4
f 23/4/4 3/8/8 14/9/9
f 22/5/5 14/9/9 13/10/10
f 22/5/5 12/11/11 21/2/2
f 21/2/2 1/12/12 15/13/13
f 84/3/3 15/13/13 75/14/14
f 24/15/15 28/16/16 27/17/17
f 56/18/18 49/19/19 57/20/20
f 27/17/17 31/21/21 30/22/22
f 55/23/23 50/24/24 52/25/25
f 2/26/26 24/15/15 18/27/27
f 11/28/28 25/29/29 24/15/15
f 9/30/30 25/29/29 10/31/31
f 1/12/12 26/32/32 9/30/30
f 12/11/11 29/33/33 26/32/32
f 29/33/33 14/9/9 32/34/34
f 32/34/34 3/8/8 8/35/35
f 31/21/21 8/35/35 7/36/36
f 31/21/21 6/37/37 30/22/22
f 30/22/22 4/38/38 16/39/39
f 17/40/40 30/22/22 16/39/39
f 18/27/27 27/17/17 17/40/40
f 34/41/41 102/42/42 33/43/43
f 103/44/44 46/45/45 125/46/46
f 6/37/37 5/47/47 4/38/38
f 7/36/36 33/43/43 6/37/37
f 7/48/36 45/49/48 44/50/49
f 8/35/35 19/7/7 35/51/50
f 35/51/50 81/52/51 104/53/52
f 34/54/41 44/50/49 46/45/45
f 33/43/43 64/55/53 5/47/47
f 106/56/54 36/57/55 105/58/56
f 106/56/54 38/59/57 37/60/58
f 107/61/59 20/62/60 38/59/57
f 38/59/57 2/26/26 18/27/27
f 37/60/58 18/27/27 17/40/40
f 37/60/58 16/39/39 36/57/55
f 36/57/55 4/38/38 5/47/47
f 105/58/56 5/47/47 64/55/53
f 111/63/61 40/64/62 39/65/63
f 113/66/64 40/64/62 112/67/65
f 75/14/14 41/68/66 113/66/64
f 15/13/13 9/30/30 41/68/66
f 41/68/66 10/31/31 40/64/62
f 39/65/63 10/31/31 11/28/28
f 20/62/60 11/28/28 2/26/26
f 118/69/67 43/70/68 42/71/69
f 39/72/63 42/71/69 43/70/68
f 83/73/70 42/71/69 20/74/60
f 111/75/61 43/70/68 119/76/71
f 46/45/45 126/77/72 125/46/46
f 44/50/49 47/78/73 46/45/45
f 35/79/50 45/49/48 8/80/35
f 104/81/52 47/78/73 35/79/50
f 48/82/74 51/83/75 50/84/24
f 50/85/24 53/86/76 52/25/25
f 58/87/77 52/25/25 53/86/76
f 58/87/77 51/83/75 56/18/18
f 54/88/78 48/82/74 50/89/24
f 57/20/20 48/82/74 59/90/79
f 26/91/32 59/90/79 25/92/29
f 28/93/16 59/90/79 54/88/78
f 32/94/34 56/18/18 29/95/33
f 32/94/34 55/23/23 58/87/77
f 31/96/21 54/97/78 55/23/23
f 29/95/33 57/20/20 26/91/32
f 87/98/80 85/1/1 84/3/3
f 85/1/1 89/99/81 86/6/6
f 86/6/6 80/100/82 81/52/51
f 89/99/81 62/101/83 80/100/82
f 88/102/84 74/103/85 89/99/81
f 72/104/86 88/102/84 87/98/80
f 60/105/87 87/98/80 76/106/88
f 76/106/88 84/3/3 75/14/14
f 90/107/89 94/108/90 91/109/91
f 128/110/92 135/111/93 136/112/94
f 93/113/95 97/114/96 94/108/90
f 134/115/97 129/116/98 133/117/99
f 61/118/100 90/107/89 71/119/101
f 71/119/101 91/109/91 70/120/102
f 91/109/91 69/121/103 70/120/102
f 92/122/104 60/105/87 69/121/103
f 95/123/105 72/104/86 92/122/104
f 95/123/105 74/103/85 73/124/106
f 98/125/107 62/101/83 74/103/85
f 97/114/96 68/126/108 98/125/107
f 66/127/109 97/114/96 96/128/110
f 63/129/111 96/128/110 77/130/112
f 78/131/113 96/128/110 93/113/95
f 79/132/114 93/113/95 90/107/89
f 102/133/42 100/134/115 99/135/116
f 103/136/44 123/137/117 100/138/115
f 65/139/118 66/127/109 63/129/111
f 99/135/116 67/140/119 66/127/109
f 67/141/119 122/142/120 68/143/108
f 68/126/108 80/100/82 62/101/83
f 101/144/121 81/52/51 80/100/82
f 100/138/115 121/145/122 67/141/119
f 64/146/53 99/135/116 65/139/118
f 108/147/123 106/148/54 105/149/56
f 106/148/54 110/150/124 107/151/59
f 107/151/59 82/152/125 83/153/70
f 110/150/124 61/118/100 82/152/125
f 109/154/126 79/132/114 110/150/124
f 77/130/112 109/154/126 108/147/123
f 63/129/111 108/147/123 65/139/118
f 65/139/118 105/149/56 64/146/53
f 111/155/61 115/156/127 112/67/65
f 115/156/127 113/66/64 112/67/65
f 116/157/128 75/14/14 113/66/64
f 69/121/103 76/106/88 116/157/128
f 70/120/102 116/157/128 115/156/127
f 114/158/129 70/120/102 115/156/127
f 82/152/125 71/119/101 114/158/129
f 118/69/67 120/159/130 119/76/71
f 114/160/129 117/161/131 82/162/125
f 117/161/131 83/163/70 82/162/125
f 111/75/61 120/159/130 114/160/129
f 123/137/117 126/77/72 124/164/132
f 121/145/122 124/164/132 122/142/120
f 122/142/120 101/165/121 68/143/108
f 124/164/132 104/81/52 101/165/121
f 127/166/133 130/167/134 128/110/92
f 129/168/98 132/169/135 130/167/134
f 137/170/136 131/171/137 134/115/97
f 130/167/134 137/170/136 135/111/93
f 133/172/99 127/166/133 138/173/138
f 127/166/133 136/112/94 138/173/138
f 138/173/138 92/174/104 91/175/91
f 94/176/90 138/173/138 91/175/91
f 135/111/93 98/177/107 95/178/105
f 98/177/107 134/115/97 97/179/96
f 97/179/96 133/117/99 94/180/90
f 136/112/94 95/178/105 92/174/104
f 85/1/1 22/5/5 21/2/2
f 85/1/1 86/6/6 23/4/4
f 86/6/6 81/52/51 19/7/7
f 23/4/4 19/7/7 3/8/8
f 22/5/5 23/4/4 14/9/9
f 22/5/5 13/10/10 12/11/11
f 21/2/2 12/11/11 1/12/12
f 84/3/3 21/2/2 15/13/13
f 24/15/15 25/29/29 28/16/16
f 56/18/18 51/83/75 49/19/19
f 27/17/17 28/16/16 31/21/21
f 55/23/23 54/97/78 50/24/24
f 2/26/26 11/28/28 24/15/15
f 11/28/28 10/31/31 25/29/29
f 9/30/30 26/32/32 25/29/29
f 1/12/12 12/11/11 26/32/32
f 12/11/11 13/10/10 29/33/33
f 29/33/33 13/10/10 14/9/9
f 32/34/34 14/9/9 3/8/8
f 31/21/21 32/34/34 8/35/35
f 31/21/21 7/36/36 6/37/37
f 30/22/22 6/37/37 4/38/38
f 17/40/40 27/17/17 30/22/22
f 18/27/27 24/15/15 27/17/17
f 34/41/41 103/181/44 102/42/42
f 103/44/44 34/54/41 46/45/45
f 6/37/37 33/43/43 5/47/47
f 7/36/36 34/41/41 33/43/43
f 7/48/36 8/80/35 45/49/48
f 8/35/35 3/8/8 19/7/7
f 35/51/50 19/7/7 81/52/51
f 34/54/41 7/48/36 44/50/49
f 33/43/43 102/42/42 64/55/53
f 106/56/54 37/60/58 36/57/55
f 106/56/54 107/61/59 38/59/57
f 107/61/59 83/182/70 20/62/60
f 38/59/57 20/62/60 2/26/26
f 37/60/58 38/59/57 18/27/27
f 37/60/58 17/40/40 16/39/39
f 36/57/55 16/39/39 4/38/38
f 105/58/56 36/57/55 5/47/47
f 111/63/61 112/67/65 40/64/62
f 113/66/64 41/68/66 40/64/62
f 75/14/14 15/13/13 41/68/66
f 15/13/13 1/12/12 9/30/30
f 41/68/66 9/30/30 10/31/31
f 39/65/63 40/64/62 10/31/31
f 20/62/60 39/65/63 11/28/28
f 118/69/67 119/76/71 43/70/68
f 39/72/63 20/74/60 42/71/69
f 83/73/70 118/69/67 42/71/69
f 111/75/61 39/72/63 43/70/68
f 46/45/45 47/78/73 126/77/72
f 44/50/49 45/49/48 47/78/73
f 35/79/50 47/78/73 45/49/48
f 104/81/52 126/77/72 47/78/73
f 48/82/74 49/19/19 51/83/75
f 50/85/24 51/83/75 53/86/76
f 58/87/77 55/23/23 52/25/25
f 58/87/77 53/86/76 51/83/75
f 54/88/78 59/90/79 48/82/74
f 57/20/20 49/19/19 48/82/74
f 26/91/32 57/20/20 59/90/79
f 28/93/16 25/92/29 59/90/79
f 32/94/34 58/87/77 56/18/18
f 32/94/34 31/96/21 55/23/23
f 31/96/21 28/183/16 54/97/78
f 29/95/33 56/18/18 57/20/20
f 87/98/80 88/102/84 85/1/1
f 85/1/1 88/102/84 89/99/81
f 86/6/6 89/99/81 80/100/82
f 89/99/81 74/103/85 62/101/83
f 88/102/84 73/124/106 74/103/85
f 72/104/86 73/124/106 88/102/84
f 60/105/87 72/104/86 87/98/80
f 76/106/88 87/98/80 84/3/3
f 90/107/89 93/113/95 94/108/90
f 128/110/92 130/167/134 135/111/93
f 93/113/95 96/128/110 97/114/96
f 134/115/97 131/171/137 129/116/98
f 61/118/100 79/132/114 90/107/89
f 71/119/101 90/107/89 91/109/91
f 91/109/91 92/122/104 69/121/103
f 92/122/104 72/104/86 60/105/87
f 95/123/105 73/124/106 72/104/86
f 95/123/105 98/125/107 74/103/85
f 98/125/107 68/126/108 62/101/83
f 97/114/96 67/140/119 68/126/108
f 66/127/109 67/140/119 97/114/96
f 63/129/111 66/127/109 96/128/110
f 78/131/113 77/130/112 96/128/110
f 79/132/114 78/131/113 93/113/95
f 102/133/42 103/184/44 100/134/115
f 103/136/44 125/185/46 123/137/117
f 65/139/118 99/135/116 66/127/109
f 99/135/116 100/134/115 67/140/119
f 67/141/119 121/145/122 122/142/120
f 68/126/108 101/144/121 80/100/82
f 101/144/121 104/53/52 81/52/51
f 100/138/115 123/137/117 121/145/122
f 64/146/53 102/133/42 99/135/116
f 108/147/123 109/154/126 106/148/54
f 106/148/54 109/154/126 110/150/124
f 107/151/59 110/150/124 82/152/125
f 110/150/124 79/132/114 61/118/100
f 109/154/126 78/131/113 79/132/114
f 77/130/112 78/131/113 109/154/126
f 63/129/111 77/130/112 108/147/123
f 65/139/118 108/147/123 105/149/56
f 111/155/61 114/158/129 115/156/127
f 115/156/127 116/157/128 113/66/64
f 116/157/128 76/106/88 75/14/14
f 69/121/103 60/105/87 76/106/88
f 70/120/102 69/121/103 116/157/128
f 114/158/129 71/119/101 70/120/102
f 82/152/125 61/118/100 71/119/101
f 118/69/67 117/161/131 120/159/130
f 114/160/129 120/159/130 117/161/131
f 117/161/131 118/69/67 83/163/70
f 111/75/61 119/76/71 120/159/130
f 123/137/117 125/185/46 126/77/72
f 121/145/122 123/137/117 124/164/132
f 122/142/120 124/164/132 101/165/121
f 124/164/132 126/77/72 104/81/52
f 127/166/133 129/186/98 130/167/134
f 129/168/98 131/171/137 132/169/135
f 137/170/136 132/169/135 131/171/137
f 130/167/134 132/169/135 137/170/136
f 133/172/99 129/187/98 127/166/133
f 127/166/133 128/110/92 136/112/94
f 138/173/138 136/112/94 92/174/104
f 94/176/90 133/172/99 138/173/138
f 135/111/93 137/170/136 98/177/107
f 98/177/107 137/170/136 134/115/97
f 97/179/96 134/115/97 133/117/99
f 136/112/94 135/111/93 95/178/105
