# Blender v3.0.1 OBJ File: 'Kirby.blend'
# www.blender.org
o Cherry_Cylinder.002
v -0.168656 -0.000000 0.471773
v 0.195868 -0.000000 0.466680
v -0.168550 -0.039963 0.479322
v 0.195973 -0.039963 0.474228
v -0.168274 -0.064662 0.499083
v 0.196249 -0.064662 0.493989
v -0.167933 -0.064662 0.523510
v 0.196591 -0.064662 0.518416
v -0.167657 -0.039963 0.543271
v 0.196867 -0.039963 0.538177
v -0.167551 0.000000 0.550819
v 0.196972 0.000000 0.545725
v -0.167657 0.039963 0.543271
v 0.196867 0.039963 0.538177
v -0.167933 0.064662 0.523510
v 0.196591 0.064662 0.518416
v -0.168274 0.064662 0.499083
v 0.196249 0.064662 0.493989
v -0.168550 0.039963 0.479322
v 0.195973 0.039963 0.474228
v -0.133149 -0.000000 -0.168529
v 0.067157 -0.000000 0.501782
v -0.142781 -0.029721 -0.165651
v 0.057525 -0.029721 0.504660
v -0.167998 -0.048090 -0.158115
v 0.032308 -0.048090 0.512196
v -0.199168 -0.048090 -0.148801
v 0.001139 -0.048090 0.521510
v -0.224385 -0.029721 -0.141265
v -0.024078 -0.029721 0.529045
v -0.234017 0.000000 -0.138387
v -0.033710 0.000000 0.531924
v -0.224385 0.029721 -0.141265
v -0.024078 0.029721 0.529045
v -0.199168 0.048090 -0.148801
v 0.001139 0.048090 0.521510
v -0.167998 0.048090 -0.158115
v 0.032308 0.048090 0.512196
v -0.142781 0.029721 -0.165651
v 0.057525 0.029721 0.504660
v 0.209161 -0.000000 -0.151314
v 0.059132 -0.000000 0.532010
v 0.199342 -0.029721 -0.153469
v 0.049313 -0.029721 0.529854
v 0.173636 -0.048090 -0.159113
v 0.023606 -0.048090 0.524210
v 0.141861 -0.048090 -0.166090
v -0.008169 -0.048090 0.517233
v 0.116154 -0.029721 -0.171734
v -0.033875 -0.029721 0.511589
v 0.106335 0.000000 -0.173890
v -0.043694 0.000000 0.509433
v 0.116154 0.029721 -0.171734
v -0.033875 0.029721 0.511589
v 0.141861 0.048090 -0.166090
v -0.008169 0.048090 0.517233
v 0.173636 0.048090 -0.159113
v 0.023606 0.048090 0.524210
v 0.199342 0.029721 -0.153469
v 0.049313 0.029721 0.529854
v 0.208744 0.000000 -0.558968
v 0.093147 -0.159107 -0.437422
v 0.021702 0.060772 -0.437423
v 0.208744 0.196667 -0.437422
v 0.395785 0.060772 -0.437423
v 0.324341 -0.159107 -0.437423
v 0.021702 -0.060772 -0.240752
v 0.093147 0.159107 -0.240752
v 0.324340 0.159107 -0.240752
v 0.395785 -0.060772 -0.240752
v 0.208744 -0.196667 -0.240753
v 0.208744 0.000000 -0.119206
v 0.098804 0.035721 -0.526130
v 0.140798 -0.093520 -0.526130
v 0.030857 -0.057800 -0.454687
v 0.208744 -0.187041 -0.454687
v 0.276689 -0.093520 -0.526130
v 0.208744 0.115598 -0.526130
v 0.098804 0.151320 -0.454687
v 0.318683 0.035721 -0.526130
v 0.318683 0.151320 -0.454687
v 0.386630 -0.057800 -0.454687
v 0.140798 -0.209119 -0.339087
v 0.276689 -0.209119 -0.339087
v -0.011137 0.000000 -0.339087
v 0.030856 -0.129243 -0.339087
v 0.140798 0.209119 -0.339087
v 0.030856 0.129243 -0.339087
v 0.386631 0.129243 -0.339087
v 0.276689 0.209119 -0.339087
v 0.386631 -0.129243 -0.339087
v 0.428624 0.000000 -0.339087
v 0.098804 -0.151320 -0.223488
v 0.030857 0.057800 -0.223488
v 0.208744 0.187041 -0.223488
v 0.386630 0.057800 -0.223488
v 0.318683 -0.151320 -0.223488
v 0.098804 -0.035721 -0.152045
v 0.208744 -0.115598 -0.152045
v 0.140798 0.093520 -0.152045
v 0.276689 0.093520 -0.152045
v 0.318683 -0.035721 -0.152045
v -0.226173 0.000000 -0.444259
v -0.341770 -0.159107 -0.322713
v -0.413215 0.060772 -0.322713
v -0.226173 0.196667 -0.322713
v -0.039131 0.060772 -0.322713
v -0.110576 -0.159107 -0.322713
v -0.413215 -0.060772 -0.126043
v -0.341770 0.159107 -0.126043
v -0.110576 0.159107 -0.126043
v -0.039131 -0.060772 -0.126043
v -0.226173 -0.196667 -0.126044
v -0.226173 0.000000 -0.004497
v -0.336112 0.035721 -0.411421
v -0.294119 -0.093520 -0.411421
v -0.404059 -0.057800 -0.339978
v -0.226173 -0.187041 -0.339978
v -0.158227 -0.093520 -0.411421
v -0.226173 0.115598 -0.411420
v -0.336113 0.151320 -0.339978
v -0.116234 0.035721 -0.411421
v -0.116233 0.151320 -0.339978
v -0.048287 -0.057800 -0.339978
v -0.294119 -0.209119 -0.224378
v -0.158227 -0.209119 -0.224378
v -0.446054 0.000000 -0.224378
v -0.404060 -0.129243 -0.224378
v -0.294119 0.209119 -0.224378
v -0.404060 0.129243 -0.224378
v -0.048286 0.129243 -0.224378
v -0.158227 0.209119 -0.224378
v -0.048286 -0.129243 -0.224378
v -0.006292 0.000000 -0.224378
v -0.336113 -0.151320 -0.108779
v -0.404059 0.057800 -0.108779
v -0.226173 0.187041 -0.108779
v -0.048287 0.057800 -0.108779
v -0.116233 -0.151320 -0.108779
v -0.336112 -0.035721 -0.037336
v -0.226173 -0.115598 -0.037336
v -0.294119 0.093520 -0.037336
v -0.158227 0.093520 -0.037336
v -0.116234 -0.035721 -0.037336
vt 0.353396 0.957291
vt 0.322673 0.803679
vt 0.353396 0.803679
vt 0.322673 0.957291
vt 0.291951 0.803679
vt 0.291951 0.957291
vt 0.261229 0.803679
vt 0.261229 0.957291
vt 0.230507 0.803679
vt 0.230507 0.957291
vt 0.199784 0.803679
vt 0.199784 0.957291
vt 0.169062 0.803679
vt 0.169062 0.957291
vt 0.138340 0.803679
vt 0.138340 0.957291
vt 0.107618 0.803679
vt 0.122979 0.800607
vt 0.052854 0.749659
vt 0.166318 0.667222
vt 0.107618 0.957291
vt 0.076896 0.803679
vt 0.076896 0.957291
vt 0.046173 0.803679
vt 0.346715 0.704089
vt 0.206465 0.704089
vt 0.233251 0.786525
vt 0.353396 0.957291
vt 0.322673 0.803679
vt 0.353396 0.803679
vt 0.322673 0.957291
vt 0.291951 0.803679
vt 0.291951 0.957291
vt 0.261229 0.803679
vt 0.261229 0.957291
vt 0.230507 0.803679
vt 0.230507 0.957291
vt 0.199784 0.803679
vt 0.169062 0.957291
vt 0.169062 0.803679
vt 0.138340 0.957291
vt 0.138340 0.803679
vt 0.107618 0.957291
vt 0.107618 0.803679
vt 0.166318 0.667222
vt 0.193103 0.704089
vt 0.193103 0.749659
vt 0.076896 0.957291
vt 0.076896 0.803679
vt 0.046173 0.957291
vt 0.046173 0.803679
vt 0.206465 0.704089
vt 0.206465 0.749659
vt 0.233251 0.786525
vt 0.353396 0.803679
vt 0.322673 0.957291
vt 0.322673 0.803679
vt 0.291951 0.957291
vt 0.291951 0.803679
vt 0.261229 0.957291
vt 0.261229 0.803679
vt 0.230507 0.957291
vt 0.230507 0.803679
vt 0.199784 0.957291
vt 0.199784 0.803679
vt 0.169062 0.803679
vt 0.169062 0.957291
vt 0.138340 0.803679
vt 0.138340 0.957291
vt 0.107618 0.803679
vt 0.166318 0.667222
vt 0.193103 0.704089
vt 0.193103 0.749659
vt 0.107618 0.957291
vt 0.076896 0.803679
vt 0.076896 0.957291
vt 0.046173 0.803679
vt 0.206465 0.704089
vt 0.206465 0.749659
vt 0.233251 0.786525
vt 0.166734 0.069205
vt 0.187978 0.106001
vt 0.145490 0.106001
vt 0.209222 0.142797
vt 0.230466 0.106001
vt 0.251710 0.142797
vt 0.506637 0.069205
vt 0.527880 0.106001
vt 0.485393 0.106001
vt 0.421661 0.069205
vt 0.442905 0.106001
vt 0.400417 0.106001
vt 0.336685 0.069205
vt 0.357929 0.106001
vt 0.315441 0.106001
vt 0.230466 0.179593
vt 0.124247 0.142797
vt 0.166734 0.142797
vt 0.145490 0.179593
vt 0.464149 0.142797
vt 0.506637 0.142797
vt 0.485393 0.179593
vt 0.379173 0.142797
vt 0.421661 0.142797
vt 0.400417 0.179593
vt 0.294198 0.142797
vt 0.336685 0.142797
vt 0.315441 0.179593
vt 0.187978 0.179593
vt 0.103002 0.179593
vt 0.442905 0.179593
vt 0.357929 0.179593
vt 0.272954 0.179593
vt 0.166734 0.216389
vt 0.209222 0.216389
vt 0.187978 0.253185
vt 0.081758 0.216389
vt 0.124246 0.216389
vt 0.103002 0.253185
vt 0.421661 0.216389
vt 0.464149 0.216389
vt 0.442905 0.253185
vt 0.336685 0.216389
vt 0.379173 0.216389
vt 0.357929 0.253185
vt 0.251710 0.216389
vt 0.294198 0.216389
vt 0.272954 0.253185
vt 0.315441 0.253185
vt 0.294198 0.289981
vt 0.400417 0.253185
vt 0.379173 0.289981
vt 0.485393 0.253185
vt 0.464149 0.289981
vt 0.506637 0.216389
vt 0.145490 0.253185
vt 0.124247 0.289981
vt 0.230466 0.253185
vt 0.209222 0.289981
vt 0.527880 0.179593
vt 0.549124 0.142797
vt 0.272954 0.106001
vt 0.251710 0.069205
vt 0.166734 0.069205
vt 0.187978 0.106001
vt 0.145490 0.106001
vt 0.209222 0.142797
vt 0.230466 0.106001
vt 0.251710 0.142797
vt 0.506637 0.069205
vt 0.527880 0.106001
vt 0.485393 0.106001
vt 0.421661 0.069205
vt 0.442905 0.106001
vt 0.400417 0.106001
vt 0.336685 0.069205
vt 0.357929 0.106001
vt 0.315441 0.106001
vt 0.230466 0.179593
vt 0.124247 0.142797
vt 0.166734 0.142797
vt 0.145490 0.179593
vt 0.464149 0.142797
vt 0.506637 0.142797
vt 0.485393 0.179593
vt 0.379173 0.142797
vt 0.421661 0.142797
vt 0.400417 0.179593
vt 0.294198 0.142797
vt 0.336685 0.142797
vt 0.315441 0.179593
vt 0.187978 0.179593
vt 0.103002 0.179593
vt 0.442905 0.179593
vt 0.357929 0.179593
vt 0.272954 0.179593
vt 0.166734 0.216389
vt 0.209222 0.216389
vt 0.187978 0.253185
vt 0.081758 0.216389
vt 0.124246 0.216389
vt 0.103002 0.253185
vt 0.421661 0.216389
vt 0.464149 0.216389
vt 0.442905 0.253185
vt 0.336685 0.216389
vt 0.379173 0.216389
vt 0.357929 0.253185
vt 0.251710 0.216389
vt 0.294198 0.216389
vt 0.272954 0.253185
vt 0.315441 0.253185
vt 0.294198 0.289981
vt 0.400417 0.253185
vt 0.379173 0.289981
vt 0.485393 0.253185
vt 0.464149 0.289981
vt 0.506637 0.216389
vt 0.145490 0.253185
vt 0.124247 0.289981
vt 0.230466 0.253185
vt 0.209222 0.289981
vt 0.527880 0.179593
vt 0.549124 0.142797
vt 0.272954 0.106001
vt 0.251710 0.069205
vt 0.193103 0.749659
vt 0.166318 0.786525
vt 0.079640 0.786525
vt 0.052854 0.704089
vt 0.079639 0.667222
vt 0.122979 0.653140
vt 0.193103 0.704089
vt 0.046173 0.957291
vt 0.276590 0.800607
vt 0.319929 0.786525
vt 0.346715 0.749659
vt 0.319929 0.667222
vt 0.276590 0.653140
vt 0.233251 0.667222
vt 0.206465 0.749659
vt 0.199784 0.957291
vt 0.166318 0.786525
vt 0.122979 0.800607
vt 0.079640 0.786525
vt 0.079639 0.667222
vt 0.052854 0.749659
vt 0.052854 0.704089
vt 0.122979 0.653140
vt 0.276590 0.800607
vt 0.276590 0.653140
vt 0.319929 0.786525
vt 0.346715 0.749659
vt 0.346715 0.704089
vt 0.319929 0.667222
vt 0.233251 0.667222
vt 0.353396 0.957291
vt 0.166318 0.786525
vt 0.122979 0.800607
vt 0.079640 0.786525
vt 0.079639 0.667222
vt 0.052854 0.749659
vt 0.052854 0.704089
vt 0.122979 0.653140
vt 0.046173 0.957291
vt 0.276590 0.800607
vt 0.276590 0.653140
vt 0.319929 0.786525
vt 0.346715 0.749659
vt 0.346715 0.704089
vt 0.319929 0.667222
vt 0.233251 0.667222
vn 0.6571 0.0000 -0.7537
vn -0.6660 -0.3150 -0.6761
vn -0.6779 0.0000 -0.7351
vn 0.6469 -0.3150 -0.6945
vn -0.6261 -0.7062 -0.3306
vn 0.6166 -0.7062 -0.3480
vn -0.6166 -0.7062 0.3480
vn 0.6261 -0.7062 0.3306
vn -0.6469 -0.3150 0.6945
vn 0.6660 -0.3150 0.6761
vn -0.6571 0.0000 0.7537
vn 0.6779 0.0000 0.7351
vn -0.6469 0.3150 0.6945
vn 0.6660 0.3150 0.6761
vn -0.6166 0.7062 0.3480
vn 0.6261 0.7062 0.3306
vn -0.6261 0.7062 -0.3306
vn 0.6166 0.7062 -0.3480
vn -0.6660 0.3150 -0.6761
vn 0.6469 0.3150 -0.6945
vn 0.9186 0.0000 0.3951
vn 0.4027 -0.4596 -0.7915
vn 0.5512 0.0000 -0.8343
vn 0.7710 -0.4596 0.4408
vn 0.0347 -0.7287 -0.6840
vn 0.4043 -0.7287 0.5528
vn -0.4043 -0.7286 -0.5528
vn -0.0347 -0.7287 0.6840
vn -0.7710 -0.4596 -0.4408
vn -0.4027 -0.4596 0.7915
vn -0.9186 0.0000 -0.3951
vn -0.4027 0.4596 0.7915
vn -0.7710 0.4596 -0.4408
vn -0.0347 0.7287 0.6840
vn -0.4043 0.7287 -0.5528
vn 0.4043 0.7287 0.5528
vn 0.0347 0.7287 -0.6840
vn 0.7710 0.4596 0.4408
vn 0.4027 0.4596 -0.7915
vn 0.8868 0.0000 -0.4622
vn 0.4603 -0.4596 0.7595
vn 0.7361 -0.4596 -0.4968
vn 0.0854 -0.7286 0.6795
vn 0.3622 -0.7287 -0.5812
vn -0.3622 -0.7287 0.5812
vn -0.0854 -0.7286 -0.6795
vn -0.7361 -0.4596 0.4968
vn -0.4603 -0.4596 -0.7595
vn -0.8868 0.0000 0.4622
vn -0.6116 0.0000 -0.7912
vn -0.4603 0.4596 -0.7595
vn -0.7361 0.4596 0.4968
vn -0.0854 0.7286 -0.6795
vn -0.3622 0.7287 0.5812
vn 0.3622 0.7287 -0.5812
vn 0.0854 0.7287 0.6795
vn 0.7361 0.4596 -0.4968
vn 0.4603 0.4596 0.7595
vn 0.0000 0.0000 -1.0000
vn -0.3090 -0.4253 -0.8506
vn -0.5000 0.1625 -0.8506
vn -0.5257 -0.7236 -0.4472
vn 0.0000 -0.8506 -0.5257
vn 0.0000 0.5257 -0.8506
vn 0.5000 0.1625 -0.8506
vn 0.3090 -0.4253 -0.8506
vn -0.3090 -0.9510 0.0000
vn -0.8506 0.2764 -0.4472
vn -0.8090 -0.2629 -0.5257
vn -1.0000 0.0000 0.0000
vn 0.0000 0.8944 -0.4472
vn -0.5000 0.6882 -0.5257
vn -0.3090 0.9510 0.0000
vn 0.8506 0.2764 -0.4472
vn 0.5000 0.6882 -0.5257
vn 0.8090 0.5878 0.0000
vn 0.5257 -0.7236 -0.4472
vn 0.8090 -0.2629 -0.5257
vn 0.8090 -0.5878 0.0000
vn -0.8090 -0.5878 0.0000
vn -0.8090 0.5878 0.0000
vn 0.3090 0.9510 0.0000
vn 1.0000 0.0000 0.0000
vn 0.3090 -0.9510 0.0000
vn -0.8506 -0.2764 0.4472
vn -0.5000 -0.6882 0.5257
vn -0.5000 -0.1625 0.8506
vn -0.5257 0.7236 0.4472
vn -0.8090 0.2629 0.5257
vn -0.3090 0.4253 0.8506
vn 0.5257 0.7236 0.4472
vn 0.0000 0.8506 0.5257
vn 0.3090 0.4253 0.8506
vn 0.8506 -0.2764 0.4472
vn 0.8090 0.2629 0.5257
vn 0.5000 -0.1625 0.8506
vn 0.0000 -0.8944 0.4472
vn 0.5000 -0.6882 0.5257
vn 0.0000 -0.5257 0.8506
vn 0.0000 0.0000 1.0000
vn -0.5512 0.0000 0.8343
vn 0.6116 0.0000 0.7912
s 1
f 2/1/1 3/2/2 1/3/3
f 4/4/4 5/5/5 3/2/2
f 6/6/6 7/7/7 5/5/5
f 8/8/8 9/9/9 7/7/7
f 10/10/10 11/11/11 9/9/9
f 12/12/12 13/13/13 11/11/11
f 14/14/14 15/15/15 13/13/13
f 16/16/16 17/17/17 15/15/15
f 2/18/1 18/19/18 10/20/10
f 18/21/18 19/22/19 17/17/17
f 20/23/20 1/24/3 19/22/19
f 7/25/7 15/26/15 19/27/19
f 22/28/21 23/29/22 21/30/23
f 24/31/24 25/32/25 23/29/22
f 26/33/26 27/34/27 25/32/25
f 28/35/28 29/36/29 27/34/27
f 30/37/30 31/38/31 29/36/29
f 31/38/31 34/39/32 33/40/33
f 33/40/33 36/41/34 35/42/35
f 35/42/35 38/43/36 37/44/37
f 30/45/30 28/46/28 26/47/26
f 37/44/37 40/48/38 39/49/39
f 39/49/39 22/50/21 21/51/23
f 35/52/35 37/53/37 39/54/39
f 41/55/40 44/56/41 43/57/42
f 43/57/42 46/58/43 45/59/44
f 45/59/44 48/60/45 47/61/46
f 47/61/46 50/62/47 49/63/48
f 49/63/48 52/64/49 51/65/50
f 52/64/49 53/66/51 51/65/50
f 54/67/52 55/68/53 53/66/51
f 56/69/54 57/70/55 55/68/53
f 50/71/47 48/72/45 46/73/43
f 58/74/56 59/75/57 57/70/55
f 60/76/58 41/77/40 59/75/57
f 55/78/53 57/79/55 59/80/57
f 61/81/59 74/82/60 73/83/61
f 62/84/62 74/85/60 76/86/63
f 61/87/59 73/88/61 78/89/64
f 61/90/59 78/91/64 80/92/65
f 61/93/59 80/94/65 77/95/66
f 62/84/62 76/86/63 83/96/67
f 63/97/68 75/98/69 85/99/70
f 64/100/71 79/101/72 87/102/73
f 65/103/74 81/104/75 89/105/76
f 66/106/77 82/107/78 91/108/79
f 62/84/62 83/96/67 86/109/80
f 63/97/68 85/99/70 88/110/81
f 64/100/71 87/102/73 90/111/82
f 65/103/74 89/105/76 92/112/83
f 66/106/77 91/108/79 84/113/84
f 67/114/85 93/115/86 98/116/87
f 68/117/88 94/118/89 100/119/90
f 69/120/91 95/121/92 101/122/93
f 70/123/94 96/124/95 102/125/96
f 71/126/97 97/127/98 99/128/99
f 99/128/99 102/129/96 72/130/100
f 99/128/99 97/127/98 102/129/96
f 97/127/98 70/123/94 102/129/96
f 102/125/96 101/131/93 72/132/100
f 102/125/96 96/124/95 101/131/93
f 96/124/95 69/120/91 101/131/93
f 101/122/93 100/133/90 72/134/100
f 101/122/93 95/121/92 100/133/90
f 95/121/92 68/135/88 100/133/90
f 100/119/90 98/136/87 72/137/100
f 100/119/90 94/118/89 98/136/87
f 94/118/89 67/114/85 98/136/87
f 98/116/87 99/138/99 72/139/100
f 98/116/87 93/115/86 99/138/99
f 93/115/86 71/126/97 99/138/99
f 84/113/84 97/127/98 71/126/97
f 84/113/84 91/108/79 97/127/98
f 91/108/79 70/123/94 97/127/98
f 92/112/83 96/124/95 70/123/94
f 92/112/83 89/105/76 96/124/95
f 89/105/76 69/120/91 96/124/95
f 90/111/82 95/121/92 69/120/91
f 90/111/82 87/102/73 95/121/92
f 87/102/73 68/135/88 95/121/92
f 88/110/81 94/118/89 68/117/88
f 88/110/81 85/99/70 94/118/89
f 85/99/70 67/114/85 94/118/89
f 86/109/80 93/115/86 67/114/85
f 86/109/80 83/96/67 93/115/86
f 83/96/67 71/126/97 93/115/86
f 91/108/79 92/112/83 70/123/94
f 91/108/79 82/107/78 92/112/83
f 82/107/78 65/103/74 92/112/83
f 89/105/76 90/111/82 69/120/91
f 89/105/76 81/104/75 90/111/82
f 81/104/75 64/100/71 90/111/82
f 87/102/73 88/140/81 68/135/88
f 87/102/73 79/101/72 88/140/81
f 79/101/72 63/141/68 88/140/81
f 85/99/70 86/109/80 67/114/85
f 85/99/70 75/98/69 86/109/80
f 75/98/69 62/84/62 86/109/80
f 83/96/67 84/113/84 71/126/97
f 83/96/67 76/86/63 84/113/84
f 76/86/63 66/106/77 84/113/84
f 77/95/66 82/107/78 66/106/77
f 77/95/66 80/94/65 82/107/78
f 80/94/65 65/103/74 82/107/78
f 80/92/65 81/104/75 65/103/74
f 80/92/65 78/91/64 81/104/75
f 78/91/64 64/100/71 81/104/75
f 78/89/64 79/101/72 64/100/71
f 78/89/64 73/88/61 79/101/72
f 73/88/61 63/141/68 79/101/72
f 76/86/63 77/142/66 66/106/77
f 76/86/63 74/85/60 77/142/66
f 74/85/60 61/143/59 77/142/66
f 73/83/61 75/98/69 63/97/68
f 73/83/61 74/82/60 75/98/69
f 74/82/60 62/84/62 75/98/69
f 103/144/59 116/145/60 115/146/61
f 104/147/62 116/148/60 118/149/63
f 103/150/59 115/151/61 120/152/64
f 103/153/59 120/154/64 122/155/65
f 103/156/59 122/157/65 119/158/66
f 104/147/62 118/149/63 125/159/67
f 105/160/68 117/161/69 127/162/70
f 106/163/71 121/164/72 129/165/73
f 107/166/74 123/167/75 131/168/76
f 108/169/77 124/170/78 133/171/79
f 104/147/62 125/159/67 128/172/80
f 105/160/68 127/162/70 130/173/81
f 106/163/71 129/165/73 132/174/82
f 107/166/74 131/168/76 134/175/83
f 108/169/77 133/171/79 126/176/84
f 109/177/85 135/178/86 140/179/87
f 110/180/88 136/181/89 142/182/90
f 111/183/91 137/184/92 143/185/93
f 112/186/94 138/187/95 144/188/96
f 113/189/97 139/190/98 141/191/99
f 141/191/99 144/192/96 114/193/100
f 141/191/99 139/190/98 144/192/96
f 139/190/98 112/186/94 144/192/96
f 144/188/96 143/194/93 114/195/100
f 144/188/96 138/187/95 143/194/93
f 138/187/95 111/183/91 143/194/93
f 143/185/93 142/196/90 114/197/100
f 143/185/93 137/184/92 142/196/90
f 137/184/92 110/198/88 142/196/90
f 142/182/90 140/199/87 114/200/100
f 142/182/90 136/181/89 140/199/87
f 136/181/89 109/177/85 140/199/87
f 140/179/87 141/201/99 114/202/100
f 140/179/87 135/178/86 141/201/99
f 135/178/86 113/189/97 141/201/99
f 126/176/84 139/190/98 113/189/97
f 126/176/84 133/171/79 139/190/98
f 133/171/79 112/186/94 139/190/98
f 134/175/83 138/187/95 112/186/94
f 134/175/83 131/168/76 138/187/95
f 131/168/76 111/183/91 138/187/95
f 132/174/82 137/184/92 111/183/91
f 132/174/82 129/165/73 137/184/92
f 129/165/73 110/198/88 137/184/92
f 130/173/81 136/181/89 110/180/88
f 130/173/81 127/162/70 136/181/89
f 127/162/70 109/177/85 136/181/89
f 128/172/80 135/178/86 109/177/85
f 128/172/80 125/159/67 135/178/86
f 125/159/67 113/189/97 135/178/86
f 133/171/79 134/175/83 112/186/94
f 133/171/79 124/170/78 134/175/83
f 124/170/78 107/166/74 134/175/83
f 131/168/76 132/174/82 111/183/91
f 131/168/76 123/167/75 132/174/82
f 123/167/75 106/163/71 132/174/82
f 129/165/73 130/203/81 110/198/88
f 129/165/73 121/164/72 130/203/81
f 121/164/72 105/204/68 130/203/81
f 127/162/70 128/172/80 109/177/85
f 127/162/70 117/161/69 128/172/80
f 117/161/69 104/147/62 128/172/80
f 125/159/67 126/176/84 113/189/97
f 125/159/67 118/149/63 126/176/84
f 118/149/63 108/169/77 126/176/84
f 119/158/66 124/170/78 108/169/77
f 119/158/66 122/157/65 124/170/78
f 122/157/65 107/166/74 124/170/78
f 122/155/65 123/167/75 107/166/74
f 122/155/65 120/154/64 123/167/75
f 120/154/64 106/163/71 123/167/75
f 120/152/64 121/164/72 106/163/71
f 120/152/64 115/151/61 121/164/72
f 115/151/61 105/204/68 121/164/72
f 118/149/63 119/205/66 108/169/77
f 118/149/63 116/148/60 119/205/66
f 116/148/60 103/206/59 119/205/66
f 115/146/61 117/161/69 105/160/68
f 115/146/61 116/145/60 117/161/69
f 116/145/60 104/147/62 117/161/69
f 2/1/1 4/4/4 3/2/2
f 4/4/4 6/6/6 5/5/5
f 6/6/6 8/8/8 7/7/7
f 8/8/8 10/10/10 9/9/9
f 10/10/10 12/12/12 11/11/11
f 12/12/12 14/14/14 13/13/13
f 14/14/14 16/16/16 15/15/15
f 16/16/16 18/21/18 17/17/17
f 6/207/6 4/208/4 2/18/1
f 2/18/1 20/209/20 18/19/18
f 18/19/18 16/210/16 14/211/14
f 14/211/14 12/212/12 18/19/18
f 12/212/12 10/20/10 18/19/18
f 10/20/10 8/213/8 6/207/6
f 6/207/6 2/18/1 10/20/10
f 18/21/18 20/23/20 19/22/19
f 20/23/20 2/214/1 1/24/3
f 19/27/19 1/215/3 3/216/2
f 3/216/2 5/217/5 19/27/19
f 5/217/5 7/25/7 19/27/19
f 7/25/7 9/218/9 11/219/11
f 11/219/11 13/220/13 15/26/15
f 15/26/15 17/221/17 19/27/19
f 7/25/7 11/219/11 15/26/15
f 22/28/21 24/31/24 23/29/22
f 24/31/24 26/33/26 25/32/25
f 26/33/26 28/35/28 27/34/27
f 28/35/28 30/37/30 29/36/29
f 30/37/30 32/222/101 31/38/31
f 31/38/31 32/222/101 34/39/32
f 33/40/33 34/39/32 36/41/34
f 35/42/35 36/41/34 38/43/36
f 26/47/26 24/223/24 30/45/30
f 24/223/24 22/224/21 30/45/30
f 22/224/21 40/225/38 34/226/32
f 40/225/38 38/227/36 34/226/32
f 38/227/36 36/228/34 34/226/32
f 34/226/32 32/229/101 22/224/21
f 32/229/101 30/45/30 22/224/21
f 37/44/37 38/43/36 40/48/38
f 39/49/39 40/48/38 22/50/21
f 39/54/39 21/230/23 31/231/31
f 21/230/23 23/232/22 31/231/31
f 23/232/22 25/233/25 27/234/27
f 27/234/27 29/235/29 23/232/22
f 29/235/29 31/231/31 23/232/22
f 31/231/31 33/236/33 39/54/39
f 33/236/33 35/52/35 39/54/39
f 41/55/40 42/237/102 44/56/41
f 43/57/42 44/56/41 46/58/43
f 45/59/44 46/58/43 48/60/45
f 47/61/46 48/60/45 50/62/47
f 49/63/48 50/62/47 52/64/49
f 52/64/49 54/67/52 53/66/51
f 54/67/52 56/69/54 55/68/53
f 56/69/54 58/74/56 57/70/55
f 46/73/43 44/238/41 50/71/47
f 44/238/41 42/239/102 50/71/47
f 42/239/102 60/240/58 54/241/52
f 60/240/58 58/242/56 54/241/52
f 58/242/56 56/243/54 54/241/52
f 54/241/52 52/244/49 42/239/102
f 52/244/49 50/71/47 42/239/102
f 58/74/56 60/76/58 59/75/57
f 60/76/58 42/245/102 41/77/40
f 59/80/57 41/246/40 51/247/50
f 41/246/40 43/248/42 51/247/50
f 43/248/42 45/249/44 47/250/46
f 47/250/46 49/251/48 43/248/42
f 49/251/48 51/247/50 43/248/42
f 51/247/50 53/252/51 59/80/57
f 53/252/51 55/78/53 59/80/57
