# Blender v3.0.1 OBJ File: 'Kirby.blend'
# www.blender.org
o Door_Cube.001
v -0.305271 0.317475 -0.063494
v -0.305271 0.317475 10.968314
v 0.657248 0.012067 -0.063494
v 0.657248 0.012067 10.968314
v -2.635939 -7.027797 -0.063494
v -2.635939 -7.027797 10.968314
v -1.673421 -7.333206 -0.063494
v -1.673421 -7.333206 10.968314
v 0.200398 -4.083784 -0.063494
v 0.200398 -4.083784 10.968314
v -0.762120 -3.778375 -0.063494
v -0.762120 -3.778375 10.968314
vt 0.437836 0.731078
vt 0.382477 0.786438
vt 0.382477 0.731078
vt 0.437836 0.814117
vt 0.382477 0.841797
vt 0.382477 0.814117
vt 0.437836 0.841797
vt 0.382477 0.897156
vt 0.437836 0.924836
vt 0.382477 0.952515
vt 0.382477 0.924836
vt 0.354797 0.897156
vt 0.354797 0.841797
vt 0.493195 0.841797
vt 0.465516 0.897156
vt 0.465516 0.841797
vt 0.437836 0.897156
vt 0.327117 0.841797
vt 0.327117 0.897156
vt 0.437836 0.786438
vt 0.437836 0.952515
vt 0.493195 0.897156
vn 0.3024 0.9532 0.0000
vn 0.8663 -0.4996 0.0000
vn -0.3024 -0.9532 0.0000
vn -0.9938 0.1109 0.0000
vn 0.0000 0.0000 -1.0000
vn -0.0000 0.0000 1.0000
vn -0.8663 0.4996 0.0000
vn 0.9938 -0.1109 0.0000
s off
f 2/1/1 3/2/1 1/3/1
f 10/4/2 7/5/2 9/6/2
f 8/7/3 5/8/3 7/5/3
f 12/9/4 1/10/4 11/11/4
f 7/5/5 11/12/5 9/13/5
f 4/14/6 12/15/6 10/16/6
f 8/7/6 12/15/6 6/17/6
f 3/18/5 11/12/5 1/19/5
f 6/17/7 11/11/7 5/8/7
f 4/20/8 9/6/8 3/2/8
f 2/1/1 4/20/1 3/2/1
f 10/4/2 8/7/2 7/5/2
f 8/7/3 6/17/3 5/8/3
f 12/9/4 2/21/4 1/10/4
f 7/5/5 5/8/5 11/12/5
f 4/14/6 2/22/6 12/15/6
f 8/7/6 10/16/6 12/15/6
f 3/18/5 9/13/5 11/12/5
f 6/17/7 12/9/7 11/11/7
f 4/20/8 10/4/8 9/6/8
