# Blender v3.0.1 OBJ File: 'Kirby.blend'
# www.blender.org
o spike_Cone.004
v 0.111789 0.000000 -0.860882
v -0.217512 -0.504890 -0.699264
v -0.750333 -0.312039 -0.437761
v -0.750333 0.312039 -0.437761
v -0.217512 0.504890 -0.699264
v -0.996121 0.000000 -1.913362
v 0.000000 0.000000 -1.061543
v -0.558080 -0.768140 -0.474742
v -0.903000 0.293398 -0.474743
v 0.000000 0.949472 -0.474738
v 0.903000 0.293398 -0.474743
v 0.558080 -0.768140 -0.474742
v -0.903000 -0.293398 0.474743
v -0.558080 0.768140 0.474743
v 0.558080 0.768140 0.474743
v 0.903000 -0.293398 0.474743
v -0.000000 -0.949472 0.474739
v 0.000000 0.000000 1.061543
v -0.530766 0.172454 -0.903006
v -0.328029 -0.451498 -0.903006
v -0.858800 -0.279046 -0.558093
v 0.000000 -0.902999 -0.558091
v 0.328029 -0.451498 -0.903006
v 0.000000 0.558085 -0.903003
v -0.530768 0.730542 -0.558091
v 0.530766 0.172454 -0.903006
v 0.530768 0.730542 -0.558091
v 0.858800 -0.279046 -0.558093
v -0.328030 -1.009588 0.000000
v 0.328030 -1.009588 0.000000
v -1.061543 0.000000 0.000000
v -0.858806 -0.623959 0.000000
v -0.328030 1.009588 0.000000
v -0.858806 0.623959 0.000000
v 0.858806 0.623959 0.000000
v 0.328030 1.009588 0.000000
v 0.858806 -0.623959 0.000000
v 1.061543 0.000000 0.000000
v -0.530768 -0.730542 0.558092
v -0.858800 0.279046 0.558093
v 0.000000 0.902999 0.558091
v 0.858800 0.279046 0.558093
v 0.530768 -0.730542 0.558091
v -0.530766 -0.172454 0.903006
v 0.000000 -0.558085 0.903003
v -0.328029 0.451498 0.903006
v 0.328029 0.451498 0.903006
v 0.530766 -0.172454 0.903006
v 0.744670 -0.000000 0.309086
v 0.415368 -0.504890 0.470704
v -0.117453 -0.312039 0.732207
v -0.117452 0.312039 0.732207
v 0.415368 0.504890 0.470704
v 1.115482 0.000000 2.269547
v 0.581498 -0.000000 -0.432771
v 0.498472 -0.504890 -0.075467
v 0.364132 -0.312039 0.502664
v 0.364132 0.312039 0.502663
v 0.498472 0.504890 -0.075467
v 3.054319 0.000000 0.686853
v -0.550182 0.000000 0.698547
v -0.633208 -0.504890 0.341243
v -0.767548 -0.312039 -0.236887
v -0.767548 0.312039 -0.236887
v -0.633208 0.504890 0.341243
v -3.208229 -0.000000 0.771179
v -0.006866 -0.000000 -0.892753
v 0.295465 -0.504890 -0.685012
v 0.784645 -0.312039 -0.348882
v 0.784645 0.312039 -0.348882
v 0.295465 0.504890 -0.685013
v 1.022592 0.000000 -1.453547
v -0.855943 0.000000 0.431073
v -0.553613 -0.504890 0.638813
v -0.064432 -0.312039 0.974944
v -0.064432 0.312039 0.974944
v -0.553613 0.504890 0.638813
v -1.229918 0.000000 1.912735
vt 0.198539 0.959917
vt 0.315070 0.875253
vt 0.198539 0.837389
vt 0.270559 0.738262
vt 0.126519 0.738262
vt 0.570336 0.875253
vt 0.337274 0.875253
vt 0.381785 0.738262
vt 0.082008 0.875253
vt 0.209149 0.019152
vt 0.250070 0.090028
vt 0.168229 0.090028
vt 0.290990 0.160905
vt 0.331910 0.090028
vt 0.372830 0.160905
vt 0.863873 0.019152
vt 0.904793 0.090028
vt 0.822953 0.090028
vt 0.700192 0.019152
vt 0.741112 0.090028
vt 0.659272 0.090028
vt 0.536511 0.019152
vt 0.577431 0.090028
vt 0.495591 0.090028
vt 0.331910 0.231782
vt 0.127309 0.160905
vt 0.209149 0.160905
vt 0.168229 0.231782
vt 0.782033 0.160905
vt 0.863873 0.160905
vt 0.822953 0.231782
vt 0.618352 0.160905
vt 0.700192 0.160905
vt 0.659272 0.231782
vt 0.454671 0.160905
vt 0.536511 0.160905
vt 0.495591 0.231782
vt 0.250070 0.231782
vt 0.086388 0.231782
vt 0.741112 0.231782
vt 0.577431 0.231782
vt 0.413751 0.231782
vt 0.209149 0.302658
vt 0.290990 0.302658
vt 0.250070 0.373535
vt 0.045468 0.302658
vt 0.127309 0.302658
vt 0.086388 0.373535
vt 0.700192 0.302658
vt 0.782033 0.302658
vt 0.741112 0.373535
vt 0.536511 0.302658
vt 0.618352 0.302658
vt 0.577431 0.373535
vt 0.372830 0.302658
vt 0.454671 0.302658
vt 0.413751 0.373535
vt 0.495591 0.373535
vt 0.454671 0.444412
vt 0.659272 0.373535
vt 0.618352 0.444412
vt 0.822953 0.373535
vt 0.782033 0.444412
vt 0.863873 0.302658
vt 0.168229 0.373535
vt 0.127309 0.444412
vt 0.331910 0.373535
vt 0.290990 0.444412
vt 0.904793 0.231782
vt 0.945713 0.160905
vt 0.413751 0.090028
vt 0.372830 0.019152
vt 0.198539 0.959917
vt 0.198539 0.837389
vt 0.315070 0.875253
vt 0.270559 0.738262
vt 0.126519 0.738262
vt 0.570336 0.875253
vt 0.337274 0.875253
vt 0.381785 0.738262
vt 0.082008 0.875253
vt 0.198539 0.959917
vt 0.198539 0.837389
vt 0.315070 0.875253
vt 0.270559 0.738262
vt 0.126519 0.738262
vt 0.381785 0.738262
vt 0.525825 0.738262
vt 0.453805 0.959917
vt 0.082008 0.875253
vt 0.198539 0.959917
vt 0.198539 0.837389
vt 0.315070 0.875253
vt 0.270559 0.738262
vt 0.126519 0.738262
vt 0.381785 0.738262
vt 0.525825 0.738262
vt 0.453805 0.959917
vt 0.082008 0.875253
vt 0.198539 0.959917
vt 0.198539 0.837389
vt 0.315070 0.875253
vt 0.270559 0.738262
vt 0.126519 0.738262
vt 0.381785 0.738262
vt 0.525825 0.738262
vt 0.453805 0.959917
vt 0.082008 0.875253
vt 0.198539 0.959917
vt 0.315070 0.875253
vt 0.198539 0.837389
vt 0.270559 0.738262
vt 0.126519 0.738262
vt 0.381785 0.738262
vt 0.525825 0.738262
vt 0.453805 0.959917
vt 0.082008 0.875253
vt 0.453805 0.959917
vt 0.525825 0.738262
vt 0.453805 0.959917
vt 0.525825 0.738262
vt 0.337274 0.875253
vt 0.570336 0.875253
vt 0.337274 0.875253
vt 0.570336 0.875253
vt 0.337274 0.875253
vt 0.570336 0.875253
vt 0.337274 0.875253
vt 0.570336 0.875253
vn 0.9997 0.0000 0.0236
vn 0.4494 -0.8437 0.2936
vn -0.4406 0.0000 -0.8977
vn -0.4408 -0.5214 0.7306
vn -0.4408 0.5214 0.7306
vn 0.4494 0.8437 0.2936
vn 0.0000 0.0000 -1.0000
vn -0.3090 -0.4253 -0.8506
vn -0.5000 0.1625 -0.8506
vn -0.5257 -0.7236 -0.4472
vn 0.0000 -0.8506 -0.5257
vn 0.0000 0.5257 -0.8506
vn 0.5000 0.1625 -0.8506
vn 0.3090 -0.4253 -0.8506
vn -0.3090 -0.9510 0.0000
vn -0.8506 0.2764 -0.4472
vn -0.8090 -0.2629 -0.5257
vn -1.0000 0.0000 0.0000
vn 0.0000 0.8944 -0.4472
vn -0.5000 0.6882 -0.5257
vn -0.3090 0.9510 0.0000
vn 0.8506 0.2764 -0.4472
vn 0.5000 0.6882 -0.5257
vn 0.8090 0.5878 0.0000
vn 0.5257 -0.7236 -0.4472
vn 0.8090 -0.2629 -0.5257
vn 0.8090 -0.5878 0.0000
vn -0.8090 -0.5878 0.0000
vn -0.8090 0.5878 0.0000
vn 0.3090 0.9510 0.0000
vn 1.0000 0.0000 0.0000
vn 0.3090 -0.9510 0.0000
vn -0.8506 -0.2764 0.4472
vn -0.5000 -0.6882 0.5257
vn -0.5000 -0.1625 0.8506
vn -0.5257 0.7236 0.4472
vn -0.8090 0.2629 0.5257
vn -0.3090 0.4253 0.8506
vn 0.5257 0.7236 0.4472
vn 0.0000 0.8506 0.5257
vn 0.3090 0.4253 0.8506
vn 0.8506 -0.2764 0.4472
vn 0.8090 0.2629 0.5257
vn 0.5000 -0.1625 0.8506
vn 0.0000 -0.8944 0.4472
vn 0.5000 -0.6882 0.5257
vn 0.0000 -0.5257 0.8506
vn 0.0000 0.0000 1.0000
vn 0.9265 0.0000 0.3763
vn 0.4406 0.0000 0.8977
vn 0.5134 -0.6333 0.5791
vn -0.1549 -0.3914 0.9071
vn -0.1549 0.3914 0.9071
vn 0.5134 0.6333 0.5791
vn 0.8514 0.0000 -0.5244
vn 0.9740 0.0000 0.2263
vn 0.7414 -0.6691 -0.0509
vn 0.5634 -0.4135 0.7152
vn 0.5634 0.4135 0.7152
vn 0.7414 0.6691 -0.0509
vn -0.5355 0.0000 0.8445
vn -0.9740 0.0000 0.2263
vn -0.6452 -0.6670 0.3724
vn -0.8227 -0.4122 -0.3914
vn -0.8227 0.4122 -0.3914
vn -0.6452 0.6670 0.3724
vn 0.0065 0.0000 -1.0000
vn 0.5663 0.0000 -0.8242
vn 0.3259 -0.5335 -0.7804
vn 0.8429 -0.3297 -0.4252
vn 0.8429 0.3297 -0.4252
vn 0.3259 0.5335 -0.7804
vn -0.4697 0.0000 -0.8828
vn 0.0355 -0.8437 -0.5357
vn -0.5663 0.0000 0.8242
vn 0.8529 -0.5214 0.0259
vn 0.8529 0.5214 0.0259
vn 0.0355 0.8437 -0.5357
s 1
f 1/1/1 2/2/2 6/3/3
f 2/2/2 3/4/4 6/3/3
f 3/4/4 4/5/5 6/3/3
f 2/6/2 5/7/6 4/8/5
f 4/5/5 5/9/6 6/3/3
f 5/9/6 1/1/1 6/3/3
f 7/10/7 20/11/8 19/12/9
f 8/13/10 20/14/8 22/15/11
f 7/16/7 19/17/9 24/18/12
f 7/19/7 24/20/12 26/21/13
f 7/22/7 26/23/13 23/24/14
f 8/13/10 22/15/11 29/25/15
f 9/26/16 21/27/17 31/28/18
f 10/29/19 25/30/20 33/31/21
f 11/32/22 27/33/23 35/34/24
f 12/35/25 28/36/26 37/37/27
f 8/13/10 29/25/15 32/38/28
f 9/26/16 31/28/18 34/39/29
f 10/29/19 33/31/21 36/40/30
f 11/32/22 35/34/24 38/41/31
f 12/35/25 37/37/27 30/42/32
f 13/43/33 39/44/34 44/45/35
f 14/46/36 40/47/37 46/48/38
f 15/49/39 41/50/40 47/51/41
f 16/52/42 42/53/43 48/54/44
f 17/55/45 43/56/46 45/57/47
f 45/57/47 48/58/44 18/59/48
f 45/57/47 43/56/46 48/58/44
f 43/56/46 16/52/42 48/58/44
f 48/54/44 47/60/41 18/61/48
f 48/54/44 42/53/43 47/60/41
f 42/53/43 15/49/39 47/60/41
f 47/51/41 46/62/38 18/63/48
f 47/51/41 41/50/40 46/62/38
f 41/50/40 14/64/36 46/62/38
f 46/48/38 44/65/35 18/66/48
f 46/48/38 40/47/37 44/65/35
f 40/47/37 13/43/33 44/65/35
f 44/45/35 45/67/47 18/68/48
f 44/45/35 39/44/34 45/67/47
f 39/44/34 17/55/45 45/67/47
f 30/42/32 43/56/46 17/55/45
f 30/42/32 37/37/27 43/56/46
f 37/37/27 16/52/42 43/56/46
f 38/41/31 42/53/43 16/52/42
f 38/41/31 35/34/24 42/53/43
f 35/34/24 15/49/39 42/53/43
f 36/40/30 41/50/40 15/49/39
f 36/40/30 33/31/21 41/50/40
f 33/31/21 14/64/36 41/50/40
f 34/39/29 40/47/37 14/46/36
f 34/39/29 31/28/18 40/47/37
f 31/28/18 13/43/33 40/47/37
f 32/38/28 39/44/34 13/43/33
f 32/38/28 29/25/15 39/44/34
f 29/25/15 17/55/45 39/44/34
f 37/37/27 38/41/31 16/52/42
f 37/37/27 28/36/26 38/41/31
f 28/36/26 11/32/22 38/41/31
f 35/34/24 36/40/30 15/49/39
f 35/34/24 27/33/23 36/40/30
f 27/33/23 10/29/19 36/40/30
f 33/31/21 34/69/29 14/64/36
f 33/31/21 25/30/20 34/69/29
f 25/30/20 9/70/16 34/69/29
f 31/28/18 32/38/28 13/43/33
f 31/28/18 21/27/17 32/38/28
f 21/27/17 8/13/10 32/38/28
f 29/25/15 30/42/32 17/55/45
f 29/25/15 22/15/11 30/42/32
f 22/15/11 12/35/25 30/42/32
f 23/24/14 28/36/26 12/35/25
f 23/24/14 26/23/13 28/36/26
f 26/23/13 11/32/22 28/36/26
f 26/21/13 27/33/23 11/32/22
f 26/21/13 24/20/12 27/33/23
f 24/20/12 10/29/19 27/33/23
f 24/18/12 25/30/20 10/29/19
f 24/18/12 19/17/9 25/30/20
f 19/17/9 9/70/16 25/30/20
f 22/15/11 23/71/14 12/35/25
f 22/15/11 20/14/8 23/71/14
f 20/14/8 7/72/7 23/71/14
f 19/12/9 21/27/17 9/26/16
f 19/12/9 20/11/8 21/27/17
f 20/11/8 8/13/10 21/27/17
f 49/73/49 54/74/50 50/75/51
f 50/75/51 54/74/50 51/76/52
f 51/76/52 54/74/50 52/77/53
f 50/78/51 53/79/54 52/80/53
f 52/77/53 54/74/50 53/81/54
f 53/81/54 54/74/50 49/73/49
f 55/82/55 60/83/56 56/84/57
f 56/84/57 60/83/56 57/85/58
f 57/85/58 60/83/56 58/86/59
f 58/87/59 57/88/58 55/89/55
f 58/86/59 60/83/56 59/90/60
f 59/90/60 60/83/56 55/82/55
f 61/91/61 66/92/62 62/93/63
f 62/93/63 66/92/62 63/94/64
f 63/94/64 66/92/62 64/95/65
f 64/96/65 63/97/64 61/98/61
f 64/95/65 66/92/62 65/99/66
f 65/99/66 66/92/62 61/91/61
f 67/100/67 72/101/68 68/102/69
f 68/102/69 72/101/68 69/103/70
f 69/103/70 72/101/68 70/104/71
f 70/105/71 69/106/70 67/107/67
f 70/104/71 72/101/68 71/108/72
f 71/108/72 72/101/68 67/100/67
f 73/109/73 74/110/74 78/111/75
f 74/110/74 75/112/76 78/111/75
f 75/112/76 76/113/77 78/111/75
f 76/114/77 75/115/76 73/116/73
f 76/113/77 77/117/78 78/111/75
f 77/117/78 73/109/73 78/111/75
f 5/7/6 2/6/2 1/118/1
f 2/6/2 4/8/5 3/119/4
f 53/79/54 50/78/51 49/120/49
f 50/78/51 52/80/53 51/121/52
f 59/122/60 58/87/59 55/89/55
f 55/89/55 57/88/58 56/123/57
f 65/124/66 64/96/65 61/98/61
f 61/98/61 63/97/64 62/125/63
f 71/126/72 70/105/71 67/107/67
f 67/107/67 69/106/70 68/127/69
f 77/128/78 76/114/77 73/116/73
f 73/116/73 75/115/76 74/129/74
