# Blender v3.0.1 OBJ File: 'Kirby.blend'
# www.blender.org
o Cylinder_Cylinder.001
v 1.861742 -0.138569 0.707498
v 1.861742 0.218388 0.707499
v 0.661431 -0.343523 0.984708
v 0.661431 0.423341 0.984708
v 0.005755 -0.138570 2.027627
v 0.005755 0.218388 2.027627
v -0.628803 -0.343523 0.971726
v -0.628803 0.423341 0.971726
v -1.823293 -0.138569 0.670420
v -1.823293 0.218388 0.670420
v -1.015161 -0.343523 -0.259372
v -1.015161 0.423342 -0.259372
v -1.097720 -0.138569 -1.488508
v -1.097720 0.218388 -1.488508
v 0.036291 -0.343522 -1.007250
v 0.036291 0.423342 -1.007250
v 1.179757 -0.138569 -1.465592
v 1.179757 0.218388 -1.465592
v 1.072482 -0.343523 -0.238366
v 1.072482 0.423342 -0.238366
v 2.258066 0.039909 0.840695
v 0.798722 0.039909 1.177727
v 0.001548 0.039909 2.445713
v -0.769951 0.039909 1.161944
v -2.222217 0.039909 0.795615
v -1.239686 0.039910 -0.334830
v -1.340061 0.039910 -1.829220
v 0.038674 0.039910 -1.244104
v 1.428905 0.039910 -1.801358
v 1.298480 0.039909 -0.309292
vt 0.725406 0.456936
vt 0.837973 0.541527
vt 0.692026 0.541527
vt 0.971154 0.541527
vt 0.886264 0.626118
vt 0.845448 0.541527
vt 0.571984 0.456936
vt 0.684551 0.541527
vt 0.538604 0.541527
vt 0.520100 0.818270
vt 0.435210 0.902861
vt 0.394394 0.818270
vt 0.291000 0.733679
vt 0.375890 0.818270
vt 0.250184 0.818270
vt 0.125706 0.818270
vt 0.040816 0.902861
vt 0.000000 0.818270
vt 0.538604 0.493193
vt 0.409335 0.497931
vt 0.489787 0.423069
vt 0.384551 0.636540
vt 0.302489 0.597352
vt 0.102462 0.242886
vt 0.222271 0.077983
vt 0.222271 0.281814
vt 0.115249 0.359797
vt 0.140033 0.498407
vt 0.033187 0.398986
vt 0.269302 0.503145
vt 0.220485 0.573268
vt 0.638504 0.179898
vt 0.444649 0.242886
vt 0.444649 0.116911
vt 0.154053 0.627000
vt 0.021708 0.636540
vt 0.000000 0.483652
vt 0.269302 0.512685
vt 0.291011 0.359797
vt 0.423355 0.369337
vt 0.040816 0.733679
vt 0.144210 0.636540
vt 0.291000 0.902861
vt 0.394394 1.000000
vt 0.435210 0.733679
vt 0.538604 0.636540
vt 0.571984 0.626117
vt 0.692026 0.723257
vt 0.886264 0.456936
vt 0.989658 0.359797
vt 0.725406 0.626117
vt 0.845448 0.723256
vt 0.845448 0.359797
vt 0.989658 0.723257
vt 0.692026 0.359797
vt 0.538604 1.000000
vt 0.394394 0.636540
vt 0.144210 1.000000
vt 0.538604 0.625881
vt 0.000000 0.179898
vt 0.102462 0.116911
vt 0.130704 0.000000
vt 0.342187 0.068715
vt 0.296317 0.179898
vt 0.342187 0.291082
vt 0.130704 0.359797
vt 0.269302 0.370457
vt 0.472891 0.000000
vt 0.564458 0.077983
vt 0.684374 0.068715
vt 0.684374 0.291082
vt 0.564458 0.281814
vt 0.472891 0.359797
vt 0.342187 0.179898
vn 0.1422 0.7751 0.6156
vn 0.5349 0.7751 0.3363
vn -0.5415 0.7751 0.3254
vn -0.1545 0.7751 0.6126
vn -0.4769 0.7751 -0.4145
vn -0.6304 0.7751 0.0423
vn 0.2468 0.7751 -0.5816
vn -0.2351 0.7751 -0.5865
vn 0.0000 1.0000 0.0000
vn 0.6294 0.7751 0.0550
vn 0.4851 0.7751 -0.4048
vn -0.0000 -1.0000 -0.0000
vn 0.7119 -0.5091 -0.4837
vn 0.8607 -0.5091 -0.0098
vn -0.2401 -0.5091 -0.8266
vn 0.2566 -0.5091 -0.8216
vn -0.8603 -0.5091 -0.0271
vn -0.7020 -0.5091 -0.4980
vn -0.2916 -0.5091 0.8098
vn -0.6905 -0.5091 0.5138
vn 0.6801 -0.5091 0.5276
vn 0.2753 -0.5091 0.8155
vn 0.2753 0.5091 0.8155
vn 0.6801 0.5091 0.5276
vn -0.6905 0.5091 0.5138
vn -0.2916 0.5091 0.8098
vn -0.7020 0.5091 -0.4980
vn -0.8603 0.5091 -0.0271
vn 0.2566 0.5091 -0.8216
vn -0.2401 0.5091 -0.8266
vn 0.1817 0.9815 0.0611
vn 0.1142 0.9815 -0.1539
vn -0.1111 0.9815 -0.1562
vn -0.1829 0.9815 0.0574
vn -0.0019 0.9815 0.1917
vn 0.8607 0.5091 -0.0098
vn 0.7119 0.5091 -0.4837
vn 0.1817 -0.9815 0.0611
vn -0.0019 -0.9815 0.1917
vn -0.1829 -0.9815 0.0574
vn -0.1111 -0.9815 -0.1562
vn 0.1142 -0.9815 -0.1539
vn 0.4851 -0.7751 -0.4048
vn 0.6294 -0.7751 0.0550
vn -0.2351 -0.7751 -0.5865
vn 0.2468 -0.7751 -0.5816
vn -0.6304 -0.7751 0.0423
vn -0.4769 -0.7751 -0.4145
vn -0.1545 -0.7751 0.6126
vn -0.5415 -0.7751 0.3254
vn 0.5349 -0.7751 0.3363
vn 0.1422 -0.7751 0.6156
s off
f 2/1/1 22/2/1 21/3/1
f 22/4/2 6/5/2 23/6/2
f 6/7/3 24/8/3 23/9/3
f 24/10/4 10/11/4 25/12/4
f 10/13/5 26/14/5 25/15/5
f 26/16/6 14/17/6 27/18/6
f 14/19/7 28/20/7 27/21/7
f 28/20/8 18/22/8 29/23/8
f 4/24/9 16/25/9 8/26/9
f 18/27/10 30/28/10 29/29/10
f 30/28/11 2/30/11 21/31/11
f 7/32/12 15/33/12 19/34/12
f 30/28/13 1/35/13 19/36/13
f 17/37/14 30/28/14 19/36/14
f 28/20/15 17/38/15 15/39/15
f 13/40/16 28/20/16 15/39/16
f 26/16/17 13/41/17 11/42/17
f 9/43/18 26/14/18 11/44/18
f 24/10/19 9/45/19 7/46/19
f 5/47/20 24/8/20 7/48/20
f 22/4/21 5/49/21 3/50/21
f 1/51/22 22/2/22 3/52/22
f 2/1/23 4/53/23 22/2/23
f 22/4/24 4/54/24 6/5/24
f 6/7/25 8/55/25 24/8/25
f 24/10/26 8/56/26 10/11/26
f 10/13/27 12/57/27 26/14/27
f 26/16/28 12/58/28 14/17/28
f 14/19/29 16/59/29 28/20/29
f 28/20/30 16/59/30 18/22/30
f 4/24/31 2/60/31 20/61/31
f 20/61/32 18/62/32 16/25/32
f 16/25/33 14/63/33 12/64/33
f 12/64/34 10/65/34 8/26/34
f 8/26/35 6/66/35 4/24/35
f 4/24/9 20/61/9 16/25/9
f 16/25/9 12/64/9 8/26/9
f 18/27/36 20/67/36 30/28/36
f 30/28/37 20/67/37 2/30/37
f 19/34/38 1/68/38 3/69/38
f 3/69/39 5/70/39 7/32/39
f 7/32/40 9/71/40 11/72/40
f 11/72/41 13/73/41 15/33/41
f 15/33/42 17/74/42 19/34/42
f 19/34/12 3/69/12 7/32/12
f 7/32/12 11/72/12 15/33/12
f 30/28/43 21/31/43 1/35/43
f 17/37/44 29/29/44 30/28/44
f 28/20/45 29/23/45 17/38/45
f 13/40/46 27/21/46 28/20/46
f 26/16/47 27/18/47 13/41/47
f 9/43/48 25/15/48 26/14/48
f 24/10/49 25/12/49 9/45/49
f 5/47/50 23/9/50 24/8/50
f 22/4/51 23/6/51 5/49/51
f 1/51/52 21/3/52 22/2/52
